<?xml version="1.0" encoding="UTF-8"?>
<svg id="Layer_2" data-name="Layer 2" xmlns="http://www.w3.org/2000/svg" viewBox="0 0 604.3 375.84">
  <defs>
    <style>
      .cls-1 {
        fill: #d6c9b2;
      }

      .cls-1, .cls-2, .cls-3, .cls-4, .cls-5, .cls-6, .cls-7, .cls-8, .cls-9, .cls-10, .cls-11, .cls-12, .cls-13, .cls-14, .cls-15, .cls-16, .cls-17, .cls-18, .cls-19, .cls-20, .cls-21, .cls-22, .cls-23, .cls-24, .cls-25, .cls-26, .cls-27, .cls-28, .cls-29, .cls-30, .cls-31 {
        stroke-width: 0px;
      }

      .cls-2 {
        fill: #aed735;
      }

      .cls-3 {
        fill: #9f6603;
      }

      .cls-4 {
        fill: #faeb3e;
      }

      .cls-5 {
        fill: #683d13;
      }

      .cls-6 {
        fill: #ee7d1f;
      }

      .cls-7 {
        fill: #f87e98;
      }

      .cls-8 {
        fill: #8b0403;
      }

      .cls-9 {
        fill: #ce1b18;
      }

      .cls-10 {
        fill: #d20b2e;
      }

      .cls-11 {
        fill: #e72a1e;
      }

      .cls-12 {
        fill: #fc4b47;
      }

      .cls-13 {
        fill: #131412;
      }

      .cls-14 {
        fill: #fff;
      }

      .cls-15 {
        fill: #ff0837;
      }

      .cls-16 {
        fill: #f8b034;
      }

      .cls-17 {
        fill: #fdfcf9;
      }

      .cls-18 {
        fill: #88ad15;
      }

      .cls-19 {
        fill: #ff7e45;
      }

      .cls-20 {
        fill: #f19103;
      }

      .cls-21 {
        fill: #232321;
      }

      .cls-22 {
        fill: #f5de2d;
      }

      .cls-23 {
        fill: #edc10d;
      }

      .cls-24 {
        fill: #f42222;
      }

      .cls-25 {
        fill: #e58307;
      }

      .cls-26 {
        fill: #f69034;
      }

      .cls-27 {
        fill: #e5342b;
      }

      .cls-28 {
        fill: #94c01e;
      }

      .cls-29 {
        fill: #f6d234;
      }

      .cls-30 {
        fill: #799b10;
      }

      .cls-31 {
        fill: #893004;
      }
    </style>
  </defs>
  <g id="Layer_1-2" data-name="Layer 1">
    <g>
      <g>
        <g>
          <path class="cls-29" d="M286.13,209.39c17.6-2.19,35.28-4.24,52.48-8.72,20.17-5.14,39.37-13.65,58.43-22.05,18.56-11.18,74.87-49.02,88.32-59.93,30.59-24.8,50.75-16.01,79.33-46.86,7.9,4.95,11.28,14.37,17.71,20.89.47.54.94,1.1.74,1.91-10.82,9.16-33.75,15.46-31.67,32.53-13.21,71.01-71.44,124.32-132.13,158.77-52.01,30.88-113.87,39.73-173.2,30.4-68.47-8.84-155.51-77.99-195.48-133-3.94-5.81-22.75-33.44-15.36-36.99,28.4-18.51,2.73-18.7,32.33-20.98,22.51,8.38,40.04,25.28,59.21,38.75,18.18,11.24,36.94,21.13,56.93,28.6,32.14,12.96,67.87,16.55,102.34,16.69Z"/>
          <path class="cls-6" d="M153.78,180.48c-.1-1.54,92.33-71.93,93.85-71.3,3.06,12.86,1.46,25.46-2.63,37.75-4.97,14.96-14.26,26.84-27.39,35.57-10.21,6.79-21.49,10.29-33.82,10.2-9.72-.57-22.18-6.28-30.01-12.22Z"/>
          <path class="cls-23" d="M33.37,148.58c18.43,47.79,59.24,82.86,99,113.29,53.41,40.64,102.33,59.25,169.84,56.99,50.88-.84,99.49-20.41,141.07-48.97,51.43-32.67,94.89-83.12,108.19-142.74,9.03,35.57-.88,73.31-20.09,103.71-89.27,141.35-233.07,161.45-319.36,134.67C101.97,337.93,22.21,191.63,20.81,182c-1.67-12.4-.44-25.03,4.51-36.56,2.48,1.59,5.17,2.61,8.06,3.15Z"/>
          <path class="cls-22" d="M36.41,372.22c35.72-14.5,65.98-46.53,54.95-86.08-.16-.9-1.16-10.31-.55-10.13.45.14,6.86,8.02,7.98,10.06,11.76,21.39,10.16,53.64-10.07,70.07-12.29,8.15-31.87,22.65-46.51,19.18l-5.8-3.1Z"/>
          <path class="cls-18" d="M340.23,206.99c29.53-51.43-8.46-92.11-33.67-132.37-1.55-2.47-6.67-12.13-4.24-10.52,15.03,9.99,20.41,16.36,26.47,21.6,31.39,27.1,87.46,80.31,11.44,121.29Z"/>
          <path class="cls-20" d="M458.3,312.08c-4.83-50,44.24-77.54,88.51-69.89,10.52,1.94,21.62,4.86,30.27,11.44,32,37.11,11.76,152.39-83.81,113.57-20.75-8.43-32.18-32.82-34.95-54.9l-.02-.21Z"/>
          <path class="cls-24" d="M430.33,155.3c-10.38,9.7-59.78-17.73-74.43-36.52-6.61-8.48-13.05-18.33-13.91-29.24-1.72-21.68,13.47-44.11,40.57-45.38,5.67-.1,11.44-1.03,16.37-3.45.29-.14.56-.31.82-.48,1.96-1.31,4.2-2.38,5.67-4.1,8.05-9.52,18-17.54,30.12-20.98,1.14-.32,2.33-.36,3.48-.08,36.78,8.69,45.09,85.3,34.76,117.59-.66,2.06-2.3,3.66-4.37,4.29-16.65,5.02-24.05,4.33-39.08,18.37Z"/>
          <path class="cls-26" d="M143.01,170.7c-1.37-1.51-3.38-1.86-5.28-2.36-1.48-.39-3.06-.49-4.37-1.42-7.28-1.04-11.98-6.02-17.46-10.6-7.46-6.25-8.87-17-9.55-24.34-2.33-25.06,1.51-41.19,19.01-58.94,3.65-3.7,8.25-6.46,12.8-8.91,9.63-5.19,19.32-4.46,28.72,1.03.76.44,1.72.54,2.58.8.99.06,1.86-.38,2.75-.7,1.69-.68,3.39-1.37,5.08-2.05,6.56-2.65,13.44-2.72,20.11-1.3,10.85,2.32,21.15,6.3,29.98,13.33,11.01,8.76,18.39,20.07,20.27,33.94.41,3.04-1.31,14.51-3.21,20.82-2.54,8.38-6.16,16.11-11.04,23.3-4.31,6.35-9.93,11.46-15.68,16.46-10.49,9.14-22.51,15.3-36.47,15.68-11.2.3-23.25-.04-31.51-7.32-2.56-2.26-4.43-4.91-6.71-7.42Z"/>
          <path class="cls-28" d="M351.53,199.16c-10.17,11.96-33.82,13.7-49.46,12.85-19.53-.93-37.59-12.16-43.52-31.32-6.01-18.84.52-38.86.88-58.22.77-20.18-2.68-45.9,16.7-58.54,11.77-7.63,25.36-3.33,33.93,6.99,6.42,7.31,11.14,16.4,16.44,24.63,11.03,18.13,27.77,33.59,34.23,53.93,5.62,17.3-.82,39.82-9.2,49.68Z"/>
          <path class="cls-4" d="M79.66,257.59c1.82,8.13,8.37,14.34,12.95,20.86,20.6,36.8-10.73,84.03-47.53,95.53-2.71.73-5.33.2-7.74-1.21-38.96-22.34-55.22-81.58-10.08-105.45,3.88-2.57,7.6-5.54,11.08-8.64,5.27-4.68,9.92-9.64,13.91-14.04,2.09-2.34,4.73-4.26,7.92-4.75,15.78-1.64,15.65,4.88,19.44,17.52l.06.18Z"/>
          <path class="cls-9" d="M471.39,135.94c7.03-11.41,5.45-27.61,5.36-40.81-2.89-28.96-6.72-70.48-39.63-80.05,4.12-3.42,15.26-1.4,20.17-.23,18.2,6.59,28.67,25.29,30.59,43.76,1.98,24.12,5.51,61.31-16.5,77.33Z"/>
          <path class="cls-25" d="M530.46,375.03c48.5-13.55,76.15-79.64,46.53-121.6,40.05,27.59,33.3,89-2.43,110.45-11.39,6.84-30.22,10.93-44.11,11.15Z"/>
          <path class="cls-5" d="M583.14,94.63c-6.15-7.6-12.3-15.2-18.46-22.8,4.9-4.22,9.77-8.49,14.77-12.6.51-.42,2.13-.32,2.6.16,6.5,6.59,12.91,13.28,19.26,20.01.35.37.32,1.76-.02,2.02-6.01,4.46-12.09,8.83-18.16,13.21Z"/>
          <path class="cls-5" d="M49.57,125.8c.86.45,1.72.89,2.57,1.34.33,4.26-1.65,7.58-4.69,10.18-4.57,3.9-9.38,7.52-14.08,11.26-3.31.54-6.06-.35-8.06-3.15-1.19-5.08.67-9.18,4.07-12.82,4.1-4.38,8.44-8.33,14.69-9.3.4-.26.79-.28,1.15.08,1.26,1.13,2.18,2.89,4.34,2.41Z"/>
          <path class="cls-30" d="M563.33,246.48c-5.09-1.11-10.15-2.33-15.27-3.28-3.91-.72-7.88-1.09-11.83-1.62-.76-1.39.41-1.86,1.23-2.35,8.05-4.82,16.17-9.46,25.19-12.31,2.15-.68,4.15-1.79,6.26-2.62,1.92-.75,3.76-.99,5.65-.06-.25,1.27-.22,2.7-.81,3.79-2.95,5.39-6.06,10.69-9.11,16.03-.46.8-.88,1.61-1.32,2.42Z"/>
          <path class="cls-28" d="M574.57,224.25c-2.25.45-4.59.65-6.73,1.41-10.78,3.83-21.11,8.64-30.83,14.7-.37.23-.52.81-.78,1.22-4.13.14-8.25.29-12.38.43-.93-2.24.79-3.54,1.82-5.07.68-1.01,1.59-1.83,2.49-2.64,1.07-1.14,7.02-5.4,8.92-6.39,6.1-3.17,12.57-5.17,19.46-5.26,5.23-.07,10.46.33,15.69.62.79.04,1.56.64,2.34.98Z"/>
          <path class="cls-5" d="M390.8,26.34c.4-1.19.81-2.38,1.21-3.57.8-1.83-.65-2.75-1.6-3.83-.78-.89-1.86-1.59-1.57-3.02.27-4.41.43-8.82.83-13.22.27-2.95.75-3.18,3.44-2.15,2.3.88,4.51,2,6.84,2.81,1.86.65,1.95,1.44,1.23,3.2-4.51,11.07-4.53,22.43-1.84,33.91-.56.21-1.13.42-1.69.63-2.28-4.92-4.57-9.85-6.85-14.77Z"/>
          <path class="cls-5" d="M278.11,42.74c1.02-1.36,2.04-2.71,3.06-4.07-1.21-2.08-4.07-3.34-3.18-6.45.89-4.22,1.61-8.49,2.74-12.64.84-3.09,1.39-3.15,4.02-1.5,2.01,1.26,3.96,2.62,6.04,3.73,1.46.78,1.62,1.47.76,2.86-5.62,9.02-7.62,19-7.55,29.49.01,1.64.19,3.28.3,4.93-.34.15-.69.31-1.03.46-2.93-5.23-4.17-10.98-5.16-16.8Z"/>
          <g>
            <path class="cls-30" d="M278.11,42.74c-.94.34-1.99.51-2.8,1.03-9.74,6.31-19.73,6.73-29.58.66-4.23-2.61-7.89-6.17-11.73-9.39-1.06-.89-2.04-2.13.26-2.88,7.41-1.44,14.86-1.24,22.32-.49,7.39.74,14.63,2.15,21.61,4.75.97.36,1.96.63,2.65,1.47,1.03,2.71-1.19,3.59-2.73,4.86Z"/>
            <path class="cls-28" d="M278,32.23c1.06,2.15,2.12,4.3,3.18,6.45-6.72-3.04-13.79-4.8-21.1-5.62-3.75-.42-7.51-.89-11.27-1.11-2.44-.14-4.98-.22-7.34.3-2.49.56-4.81.53-7.2-.08,11.92-7.67,24.3-10.98,37.72-3.86,1.24.66,2.23,1.79,3.41,2.59.8.54,1.73.89,2.6,1.32Z"/>
          </g>
          <path class="cls-5" d="M172.54,49.79c1.75-.61,3.5-1.22,5.25-1.83-1.84-3.83-1.74-5.39.44-7.12,2.81-3.24,5.64-6.48,8.43-9.74,1.37-1.61,2.38-1.14,3.27.45.1.18.22.35.32.53,1.34,2.41,3.85,4.92,3.65,7.21-.15,1.8-3.64,3.31-5.64,4.95-7.02,5.74-12.7,12.48-16.05,21.02-.81.66-1.17,3.1-2.75.7,1.01-4.59,2.03-9.17,3-13.76.16-.77.06-1.59.09-2.39Z"/>
          <path class="cls-12" d="M342.01,83.25c0,2.22,0,4.45,0,6.67,0-2.22,0-4.45,0-6.67Z"/>
          <path class="cls-12" d="M439.7,13.77c-.86.44-1.72.87-2.57,1.31-.3-.07-.6-.15-.9-.22,1.16-.36,2.31-.73,3.47-1.09Z"/>
          <path class="cls-1" d="M286.12,208.18c.68.39,1.36.79,2.04,1.18-.68.01-1.36.02-2.04.03,0-.4,0-.81,0-1.21Z"/>
          <path class="cls-29" d="M552.39,131.45c-.23-.82-.47-1.64-.7-2.46.23.82.47,1.64.7,2.46Z"/>
          <path class="cls-12" d="M454.43,14.04c-.39-.09-.78-.18-1.18-.27.39.09.78.18,1.18.27Z"/>
          <path class="cls-12" d="M342.99,95.52c.09.41.17.82.26,1.23-.09-.41-.17-.82-.26-1.23Z"/>
          <path class="cls-12" d="M343.46,75.4c-.16.54-.32,1.09-.48,1.63.16-.54.32-1.09.48-1.63Z"/>
          <path class="cls-12" d="M442.07,13.25c-.37.05-.73.09-1.1.14.37-.05.73-.09,1.1-.14Z"/>
          <path class="cls-12" d="M457.3,14.85c-.31-.11-.62-.22-.94-.33.31.11.62.22.94.33Z"/>
          <path class="cls-23" d="M458.39,312.81l.29.87-.29-.87Z"/>
          <path class="cls-3" d="M297.91,307.46c-1.57.61-11.35-3.5-12.29-4.9-4.02-5.99-7.1-17.56-9.3-22.87-.48-1.71.24-2.72,2.23-2.71,11.85.03,23.7.07,35.55,0,2.76-.02,3.18.79,2.67,2.26-1.64,4.73-2.28,16.11-4.07,18.13-.77.87-6.01,6.7-14.8,10.09Z"/>
          <path class="cls-7" d="M241.99,293.31c-4.34.08-8.52-.71-11.43-1.85-4.02-1.45-9.05-5.01-4.24-8.27,8.07-5.05,25.74-5.97,32.88.95,4.84,6.51-12.68,9.3-16.91,9.17h-.29Z"/>
          <path class="cls-7" d="M349.23,293.3c-7.98.59-26.39-5.7-12.13-11.89,6.17-2.4,14.18-2.76,20.7-1.43,3.43.68,12.31,3.56,9.07,8.16-3.64,3.63-11.14,5.03-17.34,5.16h-.29Z"/>
          <path class="cls-23" d="M283.63,298.63c8.13-7.17,19.9-4.75,29.08-1.26-3.79,13.62-24.62,15.12-29.08,1.26Z"/>
          <path class="cls-5" d="M264.88,243.11c-11.84-22.14-33.43-10.7-38.88,13.42-.52,2.71-1.49,7.7-.23,9.72,1.08.39,1.99-2.17,3.43-5.66,2.87-6.81,4.79-15.43,10.61-20.42,8.8-6.73,18.99-1.19,22.65,8.34,2.35,4.67,3.21,12.37,5.82,16.39,1.59,1.51,1.73-2.29,1.74-3.67-.12-6.01-2.03-12.56-5.01-17.92l-.11-.2Z"/>
          <path class="cls-5" d="M363.46,243.11c-11.84-22.14-33.43-10.7-38.88,13.42-.52,2.71-1.49,7.7-.23,9.72,1.08.39,1.99-2.17,3.43-5.66,2.87-6.81,4.79-15.43,10.61-20.42,8.8-6.73,18.99-1.19,22.65,8.34,2.35,4.67,3.21,12.37,5.82,16.39,1.59,1.51,1.73-2.29,1.74-3.67-.12-6.01-2.03-12.56-5.01-17.92l-.11-.2Z"/>
          <path class="cls-17" d="M430.33,155.3l1.26-1.1-1.26,1.1Z"/>
          <path class="cls-30" d="M528.17,234.3c-.26.61-.46,1.25-.79,1.81-1.15,1.98-2.34,3.93-3.52,5.9-4.33.6-8.65,1.21-12.98,1.81-4.09-4.74-6.88-10.33-10.14-15.61-.5-.8-.59-1.76.23-2.53,2.93.38,5.89,1.1,8.73,1.58,5.56.93,10.74,2.46,15.5,5.45.94.59,1.97,1.06,2.96,1.58Z"/>
          <path class="cls-28" d="M500.97,225.69c.83,1.91,1.5,3.9,2.52,5.7,2.37,4.2,4.92,8.3,7.39,12.44-2.68.68-5.36,1.37-8.04,2.05-1.03-5.89-2.11-11.77-3.01-17.68-.12-.76.74-1.67,1.14-2.51Z"/>
          <path class="cls-22" d="M79.83,257.72c-.58-1.26-1.16-2.52-1.75-3.79.58,1.26,1.16,2.52,1.75,3.79Z"/>
          <path class="cls-28" d="M505.42,226.58c-.67-.28-1.33-.55-2-.83.67.28,1.33.55,2,.83Z"/>
          <path class="cls-22" d="M86.1,270.06c-.42-.4-.84-.81-1.26-1.21.42.4.84.81,1.26,1.21Z"/>
          <path class="cls-28" d="M509.71,227.27c-.23-.18-.45-.36-.68-.53.23.18.45.36.68.53Z"/>
          <path class="cls-11" d="M559.03,334.42c-3.28.03-6.72-.46-8.69-2.44-1.53-1.81,1.12-3.23,2.64-3.78,2.95-1.11,8.06-1.5,11.52-.27,8.3,3.3-.32,6.45-5.18,6.47h-.29Z"/>
          <path class="cls-11" d="M501.52,334.47c-3.3.04-6.05-.44-8.34-2.28-1.57-1.55-.68-3.02,3.1-4.25,3.08-.92,6.86-.95,9.93-.14,8.97,3.01.69,6.64-4.39,6.65h-.29Z"/>
          <path class="cls-16" d="M499.44,271.13c-1.31,2.36-3.88,2.55-6.16,2.56-2.19,0-4.25-.9-5.1-3.26-1.04-2.91.65-5.18,4.37-5.86,5.06,0,8.6,3.47,6.89,6.56Z"/>
          <path class="cls-5" d="M531.41,338.13c-4.52.02-8.81-4.44-8.63-9.08.03-.65.65-1.28,1-1.92.5.53,1.2.98,1.47,1.61.94,2.21,1.06,4.79,3.7,6.07,3.32,1.6,6.48.11,7.34-3.72.22-1,.17-2.08.53-3.02.2-.54,1.05-1.29,1.44-1.2.54.12,1.22.88,1.34,1.47.88,4.12-3.92,9.78-8.19,9.8Z"/>
          <path class="cls-16" d="M482.22,279.98c-1.56.11-3.05-.13-2.95-2.54.09-2.11,1.97-3.62,4.77-3.64,1.53-.01,3.25-.28,3.3,2.09.04,2.1-2.3,4.08-5.11,4.08Z"/>
          <path class="cls-16" d="M490.58,280.16c-3.06-2.65,6.23-6.48,6.64-2.03-.3,2.7-6.01,2.57-6.64,2.03Z"/>
          <path class="cls-12" d="M356.05,77.09c-.29-6.03,5.65-13.44,11.74-14.85,2.01-.46,5.45,2,6.15,4.31,1.85,6.12-5.08,16.15-11.49,16.63-4.33.33-6.39-1.63-6.4-6.1Z"/>
          <path class="cls-7" d="M461.46,93.76c8.98,2.21-2.78,10.42-7.78,10.04-2.36.16-5.51-.84-4.57-3.72,1.11-4.62,7.8-7.53,12.16-6.36l.19.04Z"/>
          <path class="cls-7" d="M399.63,126.86c-3.97-1.53.67-6.6,3.19-8.03,2.51-1.59,5.67-2.5,8.55-1.79,4.45.9.56,6.01-1.71,7.69-2.42,2.25-7.29,3.41-9.89,2.19l-.14-.06Z"/>
          <g>
            <path class="cls-8" d="M432.22,120.72c-2.3.46-6.52-3.84-7.62-5-4.88-5.17-4.8-5.3,1.67-7.95,3.69-1.51,7.33-3.14,10.94-4.82,1.39-.64,2.23-.33,2.46,1.11.45,2.9.78,5.82,1.16,8.73-.57.73-1.4.92-2.21.84-3.89-.39-6.66,1.53-9.07,4.25-.28.31,3.08,2.71,2.67,2.83Z"/>
            <path class="cls-9" d="M428.51,118.53c1.9-3.6,4.68-5.78,8.94-5.68,1.12.03,2.25-.03,3.37-.05.43,3.91-1.68,6.34-4.97,7.7-2.28.94-4.77.93-6.82-.93-.27-.24-.35-.69-.52-1.04Z"/>
          </g>
          <path class="cls-12" d="M357.85,96.81c-3.16.03-4.22-1-4.27-4.16-.05-3.05,1.45-4.57,4.45-4.52,2.72.05,4.25,1.54,4.23,4.11-.02,3.13-1.39,4.54-4.41,4.57Z"/>
          <path class="cls-11" d="M463.57,92.5c-.12.11-.25.21-.37.32-.12-.19-.24-.38-.36-.57.16-.06.34-.2.47-.16.12.03.17.27.25.41Z"/>
          <path class="cls-16" d="M149.53,65.71c4.32-.76,7.74,1.65,11.37,3.24.55.24,1.3,1.13,1.2,1.53-.17.66-.85,1.5-1.49,1.69-6.72,2.01-11.22,7.06-15.51,11.98-5.45,6.25-10.07,13.25-12.95,21.1-4.27,11.65-5.33,23.65-2.85,35.87.74,3.67,1.53,7.35,2.67,10.9.67,2.09,2.19,3.88,3.11,5.91.37.81.48,2.09.07,2.78-.27.46-1.73.51-2.56.3-7.54-1.87-12.52-7.13-15.15-13.87-3.62-9.26-6.32-18.94-5.94-29.11.23-6.27,1.19-12.42,3.93-18.14,2.63-5.49,4.77-11.34,8.16-16.32,5.2-7.63,11.38-14.57,20.76-17.37,1.63-.49,3.45-.35,5.19-.51Z"/>
          <path class="cls-11" d="M155.63,135.44c-2.65,1.16-7.93-.09-10.51-2.2-2.58-1.75-5.97-6.71-1.97-7.76,3.7-1.06,7.98.34,10.95,2.72,2.38,1.75,4.94,5.97,1.67,7.18l-.14.06Z"/>
          <path class="cls-11" d="M204.25,160.39c-2.71.89-8.04-.49-10.55-2.65-2.75-2.09-5.92-7.03-.66-7.73,4.16-.41,8.71,1.5,11.4,4.7,1.78,2.03,2.51,5.03-.05,5.65l-.14.04Z"/>
          <path class="cls-6" d="M165.82,139.46c-.13.44-.26.87-.39,1.31.13-.44.26-.87.39-1.31Z"/>
          <path class="cls-2" d="M284.51,85.9c-.6,4.71-1.92,8.18-4.12,11.33-1.55,2.22-4.04,2.72-6.25,2.36-2.21-.36-3.47-2.27-4.38-4.64-1.38-3.61-1.35-7.2-.23-10.54.99-2.96,2.59-6.06,6.11-7.13,3.08-.93,5.65.49,6.77,3.55.71,1.93,1.57,3.8,2.1,5.07Z"/>
          <path class="cls-7" d="M286.79,185.97c-4.75-1.65-.89-5.57,1.96-6.78,2.84-1.43,6.97-1.83,9.44-1.27,5.25,1.15,4.25,4.56-.1,6.8-2.86,1.63-8.3,2.39-11.12,1.3l-.17-.06Z"/>
          <path class="cls-7" d="M340.18,172.05c-3.14-.97-2.28-3.61-.12-5.29,2.38-1.95,5.88-2.89,8.98-2.81,4.49.22,6.86,1.56,4.92,4.16-2.65,3.36-9.69,5.3-13.61,3.99l-.17-.06Z"/>
          <path class="cls-21" d="M328.35,173.71c.21,5.37-5.79,10.65-10.52,8-2.27-1.22-4.25-3.5-5.26-5.8-.73-1.84.29-2.64,1.81-1.03.69.72,1.34,1.68,2.07,2.49,3.58,4.27,8.16,1.82,9.01-3.11.31-1.79.32-3.98,1-4.15,1.39.14,1.89,3.6,1.89,3.6Z"/>
          <path class="cls-2" d="M274.34,114.13c-2.18,0-4.3-2.08-4.35-4.26-.04-2.27,2.34-4.92,4.5-5.01,2.31-.1,4.78,2.75,4.75,5.48-.02,1.72-2.7,3.8-4.91,3.8Z"/>
          <path class="cls-5" d="M78.45,326.91c-.07,1.61-.67,2.64-1.48.7-.79-1.72-1.56-5.86-3.3-7.98-4.41-5.37-8.41.59-10.77,4.39-1.61,2.25-1.85.66-1.36-1.35,4.31-13.9,17.09-9.48,16.92,4.07v.17Z"/>
          <path class="cls-5" d="M42.95,319.25c.03,1.16-.81,4.53-1.85,2.24-.7-1.76-.61-5.49-1.66-7.69-1.05-2.91-4.36-4.19-6.83-2.08-1.9,1.4-3.14,4.07-4.39,5.95-1.51,2.26-2.45,1.7-1.92-.62,3.67-12.87,16.82-11.71,16.67,1.98v.22Z"/>
          <path class="cls-7" d="M74.57,337.44c-2.19.96-6.36.41-8.61-.72-2.25-1-4.64-3.1-1.45-4.29,1.66-.71,5.45-1.06,8.18-.04,2.26.65,5.81,3.51,2.06,4.98l-.17.07Z"/>
          <path class="cls-7" d="M34.52,330.35c-2.39.57-6.54.21-8.62-1.13-2.19-1.27-2.51-3.32.02-4.18,1.84-.76,5.7-.88,8.16.14,2.89,1.05,5.32,4.18.67,5.12l-.23.05Z"/>
          <path class="cls-5" d="M50.52,336.89c-3.54-.14-6.49-4.3-5.91-7.82.15-1.21,1.34-2.02,1.84-.52.5,2.31,1.4,5.15,3.79,5.81,2.19.36,3.63-2.15,4.55-3.65,1.63-2.27,2.24-.35,1.61,1.34-.88,2.81-3.39,4.91-5.71,4.84h-.18Z"/>
          <path class="cls-27" d="M456.37,95.62l.69-.62-.69.62Z"/>
        </g>
        <path class="cls-15" d="M106.41,57.36c11.99,13.52-25.4,51.92-52.6,63.02-11.85,4.83-16.01,4.83-16.01,4.83,0,0-4.45-.16-6.56-5.58-16.95-43.5-2.96-142.41,75.17-62.27Z"/>
        <path class="cls-10" d="M85.84,96.7c10.45-9.99,21.25-20.85,22.53-35.73,8.51,30.07-42.31,71.6-70.57,64.24,10.25-.38,41.03-21.05,48.04-28.51Z"/>
        <path class="cls-28" d="M73.84,33.58c-3.97-1.99-8.28-2.86-12.44-4.23-.2-.07-.36-.18-.5-.34-3.08-3.62-3.58-8.86-1.14-11.9,4.38,2,8.11,4.87,11.01,8.69,1.56,2.05,2.69,2.12,4.65.33,3.27-2.98,7.16-5.03,11.54-6.02.36.74.91,1.5.66,2.32-1.57,5.16-2.46,10.62-6.3,14.81-1.21-.53-2.42-1.07-3.62-1.6-1.23-.82-2.64-1.25-3.88-2.05Z"/>
        <path class="cls-28" d="M95.78,47.22c-3.95-2.64-7.55-5.45-11.51-8.08-.16-3.05,2-3.03,4.1-3.1,2.34.14,4.67.3,7.01.4,3.83.17,7.51.9,10.86,2.87.56,1.44-.28,2.45-1.28,3.11-2.78,1.84-5.95,3.81-9.18,4.81Z"/>
        <path class="cls-30" d="M88.37,36.03c-1.25,1.19-3.82.63-4.1,3.1-.98-.63-1.96-1.26-2.93-1.89,1.54-3.94,3.18-7.84,4.59-11.83.59-1.68.71-3.53,1.04-5.3.54,1.05,1.52,2.1,1.55,3.16.11,4.25-.07,8.51-.15,12.77Z"/>
        <path class="cls-18" d="M59.77,17.11c-1.21,3.61-.84,7.07.92,10.43.22.42.16.98.23,1.47-5.1-.28-9.93.6-15.03.32.44-1.89.54-4.97,1.13-6.82.15-.47,1.05-.69,1.6-1.03.31.53.56,1.07.68,1.7.76,3.7,3.07,4.4,6.03,1.85.23-.2.45-.42.71-.58.46-2.27.82-4.57,1.43-6.8.33-1.2,1.13-2.11,2.31-.54Z"/>
        <path class="cls-28" d="M106.42,57.95c-2.31-2.38-4.62-4.76-6.93-7.15-.68-2.33,1.08-3.3,2.95-3.15,1.88.93,3.71,1.97,5.64,2.77,2.47,1.03,2.67,1.53,1.08,3.71-.78,1.07-1.98,2.74-2.75,3.81Z"/>
        <path class="cls-30" d="M102.44,47.65c-.84.85-2.11,2.3-2.95,3.15-1.27-1.06-2.44-2.53-3.71-3.59,2.06-1.25,4.56-2.54,6.48-3.97,1.48-1.11,2.66-2.61,3.98-3.94,1.44.39,1.82,1.14.84,2.38-1.55,1.98-3.09,3.98-4.63,5.96Z"/>
        <path class="cls-28" d="M56.03,24.45c-.58,2.56-1.47,2.97-4.96,2.81-2.36-.11-2.5-1.62-2.53-3.34-.01-.81.04-1.63.06-2.44,1.34.7,2.65,1.49,4.04,2.06,1.07.44,2.25.61,3.38.91Z"/>
        <path class="cls-8" d="M72.77,86.67c-2.51-.16-4.44,1.68-6,3.57-.51.54-1.14,1.41-1.81,1.57-.51.09-.49-.94.1-2.37.62-1.51,1.65-3.01,2.87-4.05,6.07-5.16,12.38,1.85,11.36,8.37-.17,2.67-2.15,6.5-2.83,3.16-.55-3.39,1.24-9.52-3.51-10.24l-.18-.02Z"/>
        <path class="cls-8" d="M45.19,72.54c-2.51-.16-4.44,1.68-6,3.57-.51.54-1.14,1.41-1.81,1.57-.51.09-.49-.94.1-2.37.62-1.51,1.65-3.01,2.87-4.05,6.07-5.16,12.38,1.85,11.36,8.37-.17,2.67-2.15,6.5-2.83,3.16-.55-3.39,1.24-9.52-3.51-10.24l-.18-.02Z"/>
        <path class="cls-7" d="M65.52,97.45c2.07-.48,5.58.79,7.1,2.53,2.45,2.53,2.57,5.22-1.58,4.76-2.55-.23-5.19-1.51-6.56-3.73-1.2-2.02-.92-3.13.87-3.52l.17-.03Z"/>
        <path class="cls-7" d="M41.06,89.93c-2.13.34-5.51-.88-7.13-2.62-1.74-1.7-3.25-4.45.25-4.53,1.96-.19,5.52.62,7.29,2.53,1.49,1.38,2.66,4.25-.24,4.6l-.18.03Z"/>
        <path class="cls-5" d="M50.03,92.57c.15,2.69,2.96,6.56,6.87,3.15,1.06-.92,1.54-2.21,1.81-1.18-.91,6.87-11.12,5.12-10.32-2,.15-1.31,1.17-3.23,1.84-2.2.2.3-.24,1.8-.2,2.23Z"/>
        <path class="cls-19" d="M49.16,59.5c-1.34-1-.29-5.24,1.72-3.79,1.1.92.3,4.68-1.59,3.87l-.13-.08Z"/>
        <path class="cls-19" d="M93.13,57.11c1.82.56,1.48,5.94-.84,5.23-1.67-1.07-.83-5.16.72-5.24h.12Z"/>
        <path class="cls-19" d="M85.34,73.2c.06,1.23-1.06,2.32-2.28,2.46-1.28.27-1.81-.41-1.44-1.83.16-.87.96-1.59,1.88-1.76.8-.18,1.76-.1,1.82.92v.2Z"/>
        <path class="cls-19" d="M92.47,86.88c-1.02.02-.93-1.37-.77-2.12.19-1.3,1.74-2.46,2.79-2.11.39.3.33.83.32,1.33,0,1.26-.94,2.7-2.18,2.88l-.16.02Z"/>
        <path class="cls-19" d="M37.05,111.21c-.04,1.19-.82,2.3-2.04,2.24-1.85.11-1.33-3.67.06-4.05,1.11-.4,2.08.25,1.99,1.55v.25Z"/>
        <path class="cls-19" d="M62.97,114.44c-.59,1.32-2,.29-2.09-.73.03-1.05.72-2.42,1.7-1.9.91.43.84,1.59.48,2.43l-.09.2Z"/>
        <path class="cls-19" d="M60.92,39.44c.14,1.49-1.36,2.52-2.73,2.3-1.12-.21-.81-2.31-.25-3.02.83-.91,2.86-1.02,2.96.5v.22Z"/>
        <path class="cls-19" d="M35.92,97.77c0,1.81-3.98,2.39-3.94.4-.1-.93.77-1.59,1.9-1.56.73,0,2.01.15,2.04,1v.16Z"/>
        <path class="cls-19" d="M63.72,73.05c-.51-.07-.51-.2-.71-.57-.44-1.25-.06-3.66,1.47-3.82,1.79-.11.85,4.32-.62,4.38h-.14Z"/>
        <path class="cls-19" d="M76.69,46.16c-.07-1.33,1.56-2.2,2.74-2.07,1.09.29.43,3.13-.75,3.28-.84.28-1.91.03-1.98-1.01v-.2Z"/>
        <path class="cls-19" d="M43.99,40.64c0,.9-.81,1.3-1.68,1.33-.86.02-1.93.1-2.14-.76-.09-.54.04-1.3.58-1.67.87-.53,3.27-.62,3.25.91v.19Z"/>
        <path class="cls-19" d="M76.38,60.63c1.13.34,1.41,2.36.84,3.32-.55,1.08-1.63,1.09-2.15-.06-.51-1.09-.12-3.03,1.19-3.28h.12Z"/>
        <path class="cls-19" d="M31.57,72.09c-.02.88-.21,1.83-.94,2.24-.5.27-1.08.17-1.27-.49-.3-.92-.25-3.22.62-3.6,1.03-.47,1.59.53,1.59,1.57v.28Z"/>
        <path class="cls-19" d="M46.82,110.52c-1.36-.01-1.4-2.02-.76-2.82.5-.56,1.73-.77,2.36-.49.48.22.46,1.22.34,1.77-.13.91-.85,1.54-1.73,1.53h-.2Z"/>
        <path class="cls-19" d="M35.75,55.64c.05-2.15,2.89-2.18,2.53.12.03,2.71-2.65,2.75-2.54.15v-.27Z"/>
        <path class="cls-19" d="M97.69,70.87c-.08-1.34,1.86-1.57,2.84-1.3.53.19.59.79.54,1.41-.03.9-.79,1.29-1.73,1.21-.73-.02-1.55-.36-1.63-1.15l-.02-.18Z"/>
        <path class="cls-19" d="M67.03,53.32c-.07.79-.87,1.12-1.61,1.21-1.13.13-2.2-.05-1.91-1.34.07-1.86,3.56-2.05,3.54-.06v.19Z"/>
        <path class="cls-19" d="M47.77,120.74c-.45.87-2.01,1.26-2.82.79-.96-.82.04-2.25,1.19-2.43,1.32-.27,2.11.36,1.7,1.47l-.08.18Z"/>
        <path class="cls-19" d="M85.88,97.11c1.19,1.11-.72,3.13-1.86,2.39-1.82-.8.45-3.62,1.75-2.49l.11.1Z"/>
        <path class="cls-3" d="M68.15,31.24c1.1.46,3.3,1.38,4.44,1.86-.39-.16-3.57-1.5-4.44-1.86h0Z"/>
        <path class="cls-3" d="M76.29,34.77c-.07-.04,1.34.82,1.39.85.11.07-1.37-.84-1.39-.85h0Z"/>
        <path class="cls-3" d="M73.8,33.56s1.43.81,1.39.79c.05.03-1.45-.82-1.39-.79h0Z"/>
        <path class="cls-3" d="M64.01,30.11c.3.11,1.12.4,1.32.47.16.06-1.3-.47-1.32-.47h0Z"/>
        <path class="cls-3" d="M61.37,29.33s1.33.52,1.44.56c-.02,0-1.19-.46-1.44-.56h0Z"/>
      </g>
      <g>
        <circle class="cls-14" cx="398.71" cy="98.66" r="12.89"/>
        <circle class="cls-13" cx="398.23" cy="97.89" r="10.66"/>
        <circle class="cls-14" cx="393" cy="94.76" r="3.43"/>
      </g>
      <g>
        <circle class="cls-14" cx="438.12" cy="80.79" r="12.89"/>
        <circle class="cls-13" cx="437.64" cy="80.02" r="10.66"/>
        <circle class="cls-14" cx="432.42" cy="76.89" r="3.43"/>
      </g>
      <g>
        <circle class="cls-14" cx="292.2" cy="161.21" r="11.44"/>
        <circle class="cls-13" cx="291.77" cy="160.52" r="9.45"/>
        <circle class="cls-14" cx="287.13" cy="157.75" r="3.05"/>
      </g>
      <g>
        <circle class="cls-14" cx="328.79" cy="145.35" r="11.44"/>
        <circle class="cls-13" cx="328.37" cy="144.66" r="9.45"/>
        <circle class="cls-14" cx="323.73" cy="141.89" r="3.05"/>
      </g>
      <g>
        <circle class="cls-14" cx="162.42" cy="115.94" r="11.44"/>
        <circle class="cls-13" cx="162.51" cy="115.14" r="9.45"/>
        <circle class="cls-14" cx="160.61" cy="110.08" r="3.05"/>
      </g>
      <g>
        <circle class="cls-14" cx="205.35" cy="134.94" r="11.44"/>
        <circle class="cls-13" cx="205.44" cy="134.14" r="9.45"/>
        <circle class="cls-14" cx="203.53" cy="129.08" r="3.05"/>
      </g>
      <g>
        <path class="cls-31" d="M165.6,153.99c-1.71-1.6-.66-7.54-.35-9.1,1.38-6.97,1.53-6.98,7.44-3.26,3.37,2.12,6.81,4.14,10.27,6.12,1.33.76,1.56,1.62.52,2.65-2.1,2.05-4.28,4.01-6.44,6.01-.92-.04-1.56-.6-1.97-1.31-1.94-3.39-5.11-4.54-8.72-4.92-.42-.04-.42,4.08-.75,3.82Z"/>
        <path class="cls-9" d="M165.24,149.7c4.03-.54,7.43.46,9.81,3.99.63.93,1.33,1.81,2,2.72-2.93,2.62-6.14,2.31-9.15.42-2.09-1.31-3.52-3.35-3.2-6.09.04-.36.36-.69.54-1.03Z"/>
      </g>
      <g>
        <path class="cls-30" d="M390.8,26.34c-13.47.78-21.96,17.99-45.01-7.3-.93-1.02-2.04-2.13.26-2.88,7.41-1.44,14.86-1.24,22.32-.49,7.39.74,14.63,2.15,21.61,4.75.97.36,1.96.63,2.65,1.47,1.03,2.71-.2,2.84-1.84,4.46Z"/>
        <path class="cls-28" d="M389.8,16.22c.66,1.34,1.26,3.27,2.18,4.52.98,1.32.77,1.57.98,2.16-6.72-3.04-13.77-5.03-21.08-5.85-3.75-.42-7.51-.89-11.27-1.11-2.44-.14-4.98-.22-7.34.3-2.49.56-4.81.53-7.2-.08,22.11-20.53,42.86-.37,43.74.06Z"/>
      </g>
      <g>
        <path class="cls-30" d="M176.26,50.48c-13.47.78-21.96,17.99-45.01-7.3-.93-1.02-2.04-2.13.26-2.88,7.41-1.44,14.86-1.24,22.32-.49,7.39.74,14.63,2.15,21.61,4.75.97.36,1.96.63,2.65,1.47,1.03,2.71-.2,2.84-1.84,4.46Z"/>
        <path class="cls-28" d="M175.25,40.36c.66,1.34,1.26,3.27,2.18,4.52.98,1.32.77,1.57.98,2.16-6.72-3.04-13.77-5.03-21.08-5.85-3.75-.42-7.51-.89-11.27-1.11-2.44-.14-4.98-.22-7.34.3-2.49.56-4.81.53-7.2-.08,22.11-20.53,42.86-.37,43.74.06Z"/>
      </g>
      <g>
        <circle class="cls-14" cx="556.54" cy="307.42" r="14.14"/>
        <circle class="cls-13" cx="556.01" cy="306.57" r="11.68"/>
        <circle class="cls-14" cx="550.28" cy="303.15" r="3.77"/>
      </g>
      <g>
        <circle class="cls-14" cx="501.08" cy="308.46" r="14.14"/>
        <circle class="cls-13" cx="500.55" cy="307.61" r="11.68"/>
        <circle class="cls-14" cx="494.82" cy="304.18" r="3.77"/>
      </g>
    </g>
  </g>
</svg>