<?xml version="1.0" encoding="UTF-8"?>
<svg id="Layer_2" data-name="Layer 2" xmlns="http://www.w3.org/2000/svg" xmlns:xlink="http://www.w3.org/1999/xlink" viewBox="0 0 1000.59 399.68">
  <defs>
    <style>
      .cls-1 {
        fill: url(#linear-gradient);
      }

      .cls-1, .cls-2, .cls-3, .cls-4, .cls-5 {
        stroke-width: 0px;
      }

      .cls-2 {
        fill: #47006d;
      }

      .cls-4 {
        fill: none;
      }

      .cls-6 {
        clip-path: url(#clippath-1);
      }

      .cls-5 {
        fill: url(#linear-gradient-2);
      }

      .cls-7 {
        clip-path: url(#clippath);
      }
    </style>
    <clipPath id="clippath">
      <path class="cls-4" d="M955.43,119.6l17.17-32.8-10.09-14.56-50.63,6.32,5.82-33.33-19.7-3.44-6.88,39.36-66.69,8.32-8.6,11.67,4.67,26.3,19.69-3.5-2.83-15.93,50.17-6.26-36.48,208.81,5.12,10.53,62.07,33.35,13.81-4.62,16.64-36.05-18.16-8.38-12.18,26.41-46.35-24.91,36.28-207.73,37.74-4.71-8.31,15.88,17.72,9.27ZM832.06,323.43l-26.82-4.2h0s-32.73-5.13-32.73-5.13l3.1-19.76,13.47,2.11,18.74-102.49-20.38,3.7-3.57-19.68,48.82-8.85-23.85,130.42,26.32,4.12-3.1,19.76ZM762.49,285.2l-19.41-4.84-3.66,14.69-52.35-10.93,111-179.27-133.33,24.82,17.16,42.54,20.94-9.19-9.96-18.25,64.36-11.98-102.21,165.07,99.14,20.69,8.32-33.36ZM405.74,257.77l2.49,16.99,19.79-2.9-19.37-132.02-19.82,2.64,11.47,96.04-64.16,13.34,4.88-108.01-19.94-1.54-1.96,135.76,86.62-20.3ZM649.28,260.95l-19.77-3.04-2.51,16.32-44.47-15.44,31.08-32.74-25.08-46.12,46.82.48-5.89,13.56,18.34,7.97,17.32-39.87-118.12-6.71,41.56,68.03-41.88,44.11,96.45,33.49,6.15-40.05ZM352.77,323.04l-1.77-16.92-57.03,5.07,17.21-201.78-96.64,13.54-11.75,99.44,79.69-16.24-10.55,124.07,80.84-7.19ZM289.02,132.71l-4.69,52.66-58.43,11.91,6.7-56.66,56.43-7.91ZM216.88,280.81L77.91,115.35l25.33-57.51,68.04,31.75,1.55,43.83-41.93-28.95-11.36,16.46,74.69,51.56-3.39-95.85L93.18,31.07l-38.59,87.61,132.47,157.72-88.12,57.52-32.77-73.46,39.83,10.08,4.91-19.39-79.79-20.19,59.13,132.53,126.66-82.67Z"/>
    </clipPath>
    <linearGradient id="linear-gradient" x1="498.73" y1="32.55" x2="498.73" y2="368.73" gradientUnits="userSpaceOnUse">
      <stop offset="0" stop-color="#fff793"/>
      <stop offset="1" stop-color="#cec200"/>
    </linearGradient>
    <clipPath id="clippath-1">
      <polygon class="cls-4" points="537.27 256.64 517 260.35 519.1 270.59 469.47 253.65 497.82 221.87 466.32 170.4 531.12 195.41 521.05 207.88 538.36 218.52 559.82 180.08 423.99 140.85 472.66 219.81 444.04 259.95 546.27 300.6 537.27 256.64"/>
    </clipPath>
    <linearGradient id="linear-gradient-2" x1="501.83" y1="39.56" x2="501.83" y2="367.45" xlink:href="#linear-gradient"/>
  </defs>
  <g id="Layer_4" data-name="Layer 4">
    <g id="logo-main">
      <g>
        <polyline class="cls-2" points="387.09 121.87 374.35 99.99 512.28 143.51 502.66 120.05 643.61 138.86 630.97 111.55 801.77 79.76 811.22 66.93 870.53 59.53 878.49 14.02 945.47 25.71 941.1 50.72 973.96 46.62 1000.59 85.06 965.56 151.98 926.94 131.78 898.62 293.95 907.24 298.58 918.79 273.54 980.54 302.03 949.49 369.29 916.02 380.49 852.74 346.49 852.97 362.01 773.91 338.61 772.51 356.9 663.73 324.2 661.99 339.03 572.42 305.47 578.66 337.69 451.86 293.23 452.63 310.43 382.85 291.29 368.13 295 375.63 340.06 250.08 349.92 254.46 283.2 79.62 399.68 0 207.58 31.09 202.43 116.63 231.8 26.76 123.37 81.1 0 214.31 62.15 215.45 94.61 330.76 78.45 326.82 122.68"/>
        <g>
          <path class="cls-3" d="M418.02,125.63l-39.39,5.24,11.6,97.1-45.9,11.55,8.33-107.87-33.34-2.58,2.83-32.08-116.74,16.36-13.46,125.78,80.49-19.34-9.56,119.47,100.63-8.95-4.35-33.33-58.38,3.49,8.43-85.28,4.34,17.49-3.42,55.61,88.13-21.75,2.43,16.56,39.58-5.8-22.25-151.68ZM274.94,176.3l-37.58,7.66,4.17-35.26,36.33-5.09-2.91,32.7Z"/>
          <polygon class="cls-3" points="761.08 322.43 767.28 282.91 780.99 285.06 795.38 206.38 779.38 209.28 772.24 169.92 845.12 156.71 820.52 291.26 846.59 295.34 840.39 334.86 761.08 322.43"/>
          <polygon class="cls-3" points="848.59 328.37 840.64 312.02 875.35 113.34 849.04 116.62 851.78 132.03 812.4 139.03 805.23 98.66 818.93 80.07 882.54 72.14 889.87 30.22 929.27 37.09 924.05 66.96 967.28 61.56 984.26 86.07 959.65 133.09 924.21 114.55 928.3 106.73 916.85 108.16 883.09 301.5 913.72 317.96 925.63 292.12 961.96 308.88 939.32 357.93 917.31 365.29 848.59 328.37"/>
          <polygon class="cls-3" points="639.02 304.74 736.83 146.77 706.96 152.33 712.24 164.78 679.42 185.41 650.67 122.12 818.49 90.89 703.09 277.25 732.05 283.3 735.8 268.24 774.61 277.91 761.55 330.32 639.02 304.74"/>
          <polygon class="cls-3" points="13.57 217.25 123.04 244.95 113.23 283.72 83.69 276.25 103.29 320.18 172.14 275.24 42.93 121.39 88.15 18.74 200.62 71.21 204.92 193.07 105.63 124.52 128.35 91.61 162.14 114.93 161.51 97.11 108.28 72.27 89.57 114.73 231.79 284.07 85.87 379.32 13.57 217.25"/>
          <polygon class="cls-3" points="540.59 278.14 538.49 261.61 576.03 222.07 528.53 144.3 666.34 152.12 677.82 170.52 652.99 215.1 616.3 199.16 620.46 189.58 602.43 188.56 626.14 227.38 600.46 254.43 618.95 260.85 621.15 246.51 660.68 252.59 651.19 314.38 540.59 278.14"/>
        </g>
      </g>
      <g class="cls-7">
        <rect class="cls-1" x="24.87" y="32.55" width="947.73" height="336.18"/>
      </g>
      <g>
        <polygon class="cls-3" points="428.47 264.34 460.48 219.44 402.92 126.05 576.36 173.91 540.36 225.63 512.02 208.78 517.64 199.85 487.19 185.25 510.4 222.9 486.91 249.23 505.51 255.58 504.9 252.63 545.44 245.22 560.08 316.68 428.47 264.34"/>
        <g class="cls-6">
          <rect class="cls-5" x="12.67" y="39.56" width="978.31" height="327.89"/>
        </g>
      </g>
    </g>
  </g>
</svg>