<?xml version="1.0" encoding="UTF-8"?>
<svg id="Layer_2" data-name="Layer 2" xmlns="http://www.w3.org/2000/svg" viewBox="0 0 537.16 300.77">
  <defs>
    <style>
      .cls-1 {
        fill: #000a0c;
      }

      .cls-1, .cls-2, .cls-3 {
        stroke-width: 0px;
      }

      .cls-2 {
        fill: #f8bd00;
      }

      .cls-3 {
        fill: #ff5a00;
      }
    </style>
  </defs>
  <g id="Graphic_Element" data-name="Graphic Element">
    <path class="cls-3" d="M236.03,92.96s.02.06.03.09c-.01.19.05.4.19.54,1.09,2.67,3.9,5.04,6.61,5.97.2.15.47.2.75.22,1.3.31,2.54.1,3.67-.51.16-.04.33-.09.48-.17.15-.07.29-.16.42-.24.08-.02.17-.03.26-.04.3-.02.47-.21.53-.43.05-.02.09-.05.14-.07.38-.17.77-.35,1.17-.51.32.09.79.19,1.03-.03.24-.07.47.11.7-.01l.05-.12c.05.04.06.07.12.05-.04-.03,0-.07,0-.11l.08.07c-.01-.16.23.23.2.06v-.12c.47-.42,1.01-.07,1.54-.15.12-.12.19-.34.32-.39,0,0,.01,0,.02,0v.15c.08.04.04-.08.09-.15,0,0,.02,0,.02,0l-.03.15.18.04-.03-.04c.06,0,.14.05.13.15.01-.09,0-.16.08-.16,0,.23.11.26.23.29,0-.03.04-.05.01-.09.23.31.4-.21.63.12v-.03c.2-.15.27.11.49-.02l-.02.12c.11-.03.21-.02.3.07v-.04s.06.02.06.02v-.03s.09,0,.14.08v-.03s.09-.01.12.04l.06-.09c.09.16.28.02.34.21.19.07.39.16.59.2.29.15.45.09.69.09.03.02.06.04.09.07.41.31.86.55,1.28.85.41.29.7.69,1.09,1,.28.22.58.42.89.62.21.36.57.56,1.01.7.09.03.17.05.26.08.07.04.14.09.21.13.84.55,1.72,1.02,2.62,1.46.87.43,1.68.94,2.51,1.44.89.54,1.81,1.03,2.71,1.56,1.77,1.03,3.54,1.99,5.39,2.87.11.05.23.11.34.17-.04.14-.03.25.02.34.11.22.4.32.4.32l.24.07s0,.08,0,.06c.14.38.7-.13.85.22.13.19.37.51.63.37.16.02.2.26.37.23l.08-.09c0,.06,0,.09.03.09,0-.04.03-.07.05-.09v.09c.08-.15.01.29.08.13l.06-.11s.05,0,.08-.01c.44.34.91.65,1.46.77.17.04.34-.02.47-.12.02.02.04.05.05.12v-.03c.17-.11.15.14.32.06l-.04.11c.07-.01.15.01.19.11v-.04s.05.03.05.03v-.03s.07.01.1.1v-.03c.05-.04.07,0,.09.06l.06-.09c.04.17.22.03.25.22.15.07.32.16.5.17.36.15.5-.07.87-.13.33.05.6.22.86.12.06.02.12.04.17.06.4.22.8.44,1.22.62.49.21,1.08.55,1.61.63.15.02.3-.01.41-.08.9.33,1.81.64,2.72.94.09.21.29.37.59.36.16,0,.32-.01.48-.02h0c.52.16,1.03.31,1.56.45.42.11.69-.23.72-.58.11-.01.22-.02.33-.03.18.01.35.02.53.03,3.12.11,6.26-.73,8.53-2.79,0,0,0,0,0,0,.15.13.34.07.53-.05.19-.12.41-.31.6-.48.03-.03.06-.06.09-.09.95-.56,1.79-1.33,2.37-2.23.12-.19.23-.39.34-.59.15-.19.29-.39.39-.63.32-.69.42-1.41.43-2.14,0-.04.01-.09.02-.13,0,0,0,0,0-.02,0,0,0,0,0,0,0-.05.01-.09.02-.13h.02s-.01-.02-.02-.03c0-.01,0-.02,0-.03.05-.06.33-.12.21-.18l-.1-.08c.01-.24.06-.47.13-.71.07-.24.15-.49.22-.74.15-.49.28-.98.3-1.43-.09-.23-.32-.38-.32-.63l.16.02c.07-.16-.13-.05-.17-.23l.19.08.06-.33-.04.05c.02-.11.07-.24.17-.23-.09-.02-.16,0-.16-.15.23,0,.26-.21.3-.41-.03,0-.05-.08-.09-.02.3-.44-.23-.68.07-1.11h-.03c-.17-.32.06-.47-.1-.82h.12c-.05-.16-.06-.35,0-.55l-.04.03v-.13s-.03,0-.03,0c.03-.06-.02-.17.04-.28h-.03c-.06-.06-.03-.14,0-.22l-.11-.07c.13-.22-.07-.51.08-.69,0-.12,0-.25,0-.37.3-.25.22-1.01.22-1.01l-.06-.41s.07-.04.05-.06c.27-.47-.47-.93-.23-1.39.1-.32.28-.87.04-1.14-.05-.24.15-.43.06-.66l-.11-.06c.05-.04.08-.04.07-.1-.04.03-.07,0-.11-.02l.08-.06c-.16-.02.27-.16.09-.17l-.12-.02c-.29-.53.13-1.14.09-1.7-.11-.14-.35-.24-.37-.38h.16c.05-.08-.13-.02-.18-.12l.19.05.05-.19-.04.03c.01-.07.06-.15.16-.14-.09-.02-.16,0-.16-.1.23.01.26-.13.3-.25-.03,0-.05-.05-.09-.02.31-.27-.22-.43.1-.68h-.03c-.16-.2.09-.28-.04-.5h.12c-.03-.09-.03-.21.05-.32h-.04s.01-.06.01-.06h-.03s0-.1.07-.16h-.03c-.05-.04-.02-.09.04-.13l-.1-.05c.15-.11,0-.3.17-.39.04-.21.12-.4.14-.61.12-.31.05-.48.02-.74.13-.23.3-.47.41-.71.35-.46.25-.72.5-1.18.21-.21.45-.31.59-.37.02,0,0,.03.04.01.03-.01.08-.04.13-.08.11-.08.25-.2.42-.47,0,0,.11-.15.15-.31.02-.08.03-.17.03-.26.58-.47,1.23-.83,1.95-1.06.19,0,.37,0,.55,0,0,.02.06.08.09.05.18.08.37.09.55.07.09,0,.16-.02.27-.04.11-.02.22-.03.32-.06.42-.09.81-.2,1.17-.07.25.06.6.15.92.2.22.04.42.06.6.05.58.16,1.15.34,1.72.55.03.04.05.06.07.03,1.21.44,2.39.97,3.54,1.47,1.97.86,3.91,1.78,5.87,2.65.67.61,1.49,1.05,2.21,1.61,1.73,1.36,3.85,2,6.02,2.24.54.06,1.06.23,1.61.26.53.03,1.05-.06,1.56-.19.59-.14,1.2-.12,1.78-.31.45-.15.88-.38,1.29-.62.01,0,.02-.01.03-.02,1.87-.59,3.14-1.86,4.02-3.43.17-.21.34-.41.52-.61.14-.16.18-.34.15-.49.02-.03.04-.05.06-.08.11-.03.21-.1.3-.21.12-.16.23-.32.33-.49.97-1.46,1.87-3.08,1.97-4.84.05-.99-.1-1.97-.12-2.96,0-.02,0-.05,0-.07.15-1.01.26-2.03.29-3.05,0-.16-.05-.28-.12-.37.05-.47.1-.95.14-1.43.06-.75.06-1.51.19-2.26.01-.1,0-.19-.02-.27.04-.31.08-.61.13-.92.02-.12.04-.25.06-.37.29-.63.5-1.29.83-1.91.21-.4.46-.86.76-1.2.2-.22.38-.41.48-.65.15-.08.29-.16.41-.27.07-.19.01-.45.14-.56l.09.13c.12-.02-.05-.13.02-.24l.07.19.21-.1h-.05c.07-.05.17-.06.22.02-.04-.08-.09-.13,0-.19.13.2.26.13.4.08-.02-.02.01-.07-.04-.08.39.11.27-.42.66-.27l-.02-.02c.13-.24.31-.05.48-.26l.04.11c.09-.07.21-.12.35-.08l-.03-.03.09-.02v-.03s.1-.04.19,0v-.03c.02-.07.08-.05.14-.02l.02-.11c.17.1.33-.12.49.02.25-.03.52-.04.78-.11.13,0,.26-.02.38-.05.11-.03.21-.07.3-.12.18-.09.34-.21.61-.31.64-.08.94.19,1.33-.12,0,0,.2-.11.27-.31.02-.05.03-.12.02-.18,2.14,0,4.31.44,6.36,1.05.35.17.75.29,1.11.44.76.31,1.53.59,2.3.86.32.12.65.24.97.36.04.13.14.26.3.36.67.4,1.35.77,2.03,1.15.73.59,1.56,1.04,2.37,1.51.52.31,1.08.6,1.57.96.04.03.08.06.13.09,0,.15.06.31.22.44.24.21.48.3.76.43.33.16.64.4.94.6.65.44,1.3.87,1.96,1.31.02.01.04.02.05.04-.06.14.06.33.26.53.47.47,1.39.98,1.39.98l.77.4s.03.11.07.1c.35.36.85.51,1.36.64,0,0,0,0,.01,0,.06.05.12.1.17.15.83.73,1.69,1.41,2.55,2.09.86.68,1.71,1.37,2.62,1.98.69.47,1.44,1.09,2.25,1.32,0,0,.01,0,.02,0,.88.58,1.76,1.15,2.64,1.72.56.36,1.11.72,1.66,1.09.22.22.44.44.67.65.95.88,1.97,1.68,2.97,2.49.78.64,1.44,1.4,2.4,1.75.67.64,1.34,1.29,2,1.93,1.23,1.39,2.48,2.75,3.75,4.09.1.13.2.25.32.36.03.03.06.05.09.07.27.28.54.57.81.85.17.17.34.35.51.52.03.05.06.09.11.14.07.06.14.13.21.19.36.38.72.76,1.08,1.15.29.32.57.66.88.96.29.28.62.51.91.79,1.15,1.11,2.13,2.55,3.54,3.35.28.25.56.5.84.75.04.04.08.08.12.12,1.11,1.62,2.66,2.9,3.99,4.33.84.9,1.75,1.71,2.59,2.61.37.39.79,1.17,1.38,1.26.06,0,.12,0,.17,0,.26.27.52.55.79.81.42.4.91.64,1.39.96.28.18.52.4.81.54,2.01,1.77,4.08,3.39,6.37,4.79-.03.1,0,.21.04.32.16.33.58.64.58.64l.36.24s-.02.08.01.07c.19.52,1.05.3,1.25.79.05.07.1.16.16.25l.05.07.08.09c.06.06.12.12.18.17.26.2.52.29.7.24.09.02.29.11.45.29.17.16.37.31.53.32.03-.03.05-.06.07-.1.06.08.07.12.15.13-.05-.06,0-.08,0-.12l.1.11c0-.09.06,0,.12.08.07.08.13.14.11.05v-.12c.12-.06.33-.14.5-.24.18-.12.32-.26.43-.42.23-.31.39-.78.31-1.31-.14-.27-.41-.41-.46-.6l.16-.02c.03-.11-.14,0-.21-.1h.2c0-.07,0-.09,0-.19-.01.02-.02.04-.03.05,0-.1.02-.22.12-.24-.09,0-.15.04-.19-.08.23-.06.19-.26.17-.4-.03.01-.07-.03-.09.02.09-.19.01-.23-.06-.27-.06-.03-.13-.11,0-.25h-.03c-.18-.16.06-.27-.1-.49h.12c-.05-.11-.06-.25,0-.4l-.04.02v-.1s-.03,0-.03,0c.03-.05-.03-.13.02-.23h-.03c-.06-.04-.05-.11-.01-.18l-.11-.04c.09-.21-.14-.35-.01-.52-.06-.25-.11-.52-.21-.75-.09-.51-.35-.54-.54-.96-.03-.27,0-.53-.03-.78-.03-.25-.12-.52-.47-.78.01,0-.33-.26-.58-.2,0-.17,0-.34-.06-.53-.14.06-.11-.15-.25-.19.03,0,.04,0,.06-.01.03.03.06.03.05-.06,0,0-.01,0-.02,0,0-.02.01-.04.03-.06-.08-.04-.11-.01-.1.02-.02-.05-.04-.11-.09-.03-.11-.11.07-.22.08-.31-.08-.14-.11-.21-.19-.42v.04c-.06-.04-.19,0-.23-.12.36-.32-.15-.28-.15-.58.15-.05.02-.13.13-.18-.23-.13-.14-.41-.31-.59-.04-.19-.09-.37-.14-.56.02,0,.06-.07.03-.08.14-.71-.74-1.22-.68-1.88-.02-.46-.1-1.25-.46-1.55-.16-.3-.07-.63-.27-.89l-.13-.04c.03-.07.05-.09.02-.15-.02.05-.07.02-.11.01l.04-.11c-.16.04.17-.3,0-.25l-.12.02c-.54-.57-.45-1.51-.8-2.23-.18-.14-.45-.16-.55-.33l.15-.06c0-.15-.14.02-.24-.09l.2-.02-.06-.27-.02.06c-.03-.09-.03-.2.07-.24-.09.02-.15.06-.19-.05.22-.09.17-.26.14-.43-.03.01-.07-.04-.09.02.14-.45-.43-.44-.27-.89h-.03c-.26-.18-.07-.38-.33-.62l.11-.04c-.1-.14-.18-.3-.19-.49l-.03.04-.05-.11-.02.02c0-.06-.08-.13-.06-.25l-.02.02c-.08-.03-.08-.11-.07-.18h-.12c.04-.23-.23-.36-.13-.56-.05-.14-.08-.23-.13-.4-.05-.16-.1-.31-.16-.46-.08-.33-.18-.5-.31-.68-.14-.19-.3-.37-.48-.66-.29-.74-.21-1.21-.78-1.6,0,0-.16-.13-.35-.18-.1-.6-.27-1.19-.46-1.79-.27-.85-.35-1.73-.74-2.53-.36-.72-.84-1.37-1.24-2.07-.36-.63-.68-1.28-.97-1.94-.01-.53.07-.9-.26-1.36,0,0-.2-.36-.46-.37-.18-.45-.37-.89-.56-1.33-.36-.82-.72-1.64-1.06-2.47-.14-.43-.28-.87-.43-1.29-.14-.41-.25-.83-.46-1.2-.04-.41-.18-.83-.32-1.24-.33-1.31-.75-2.61-1.18-3.88-.05-.14-.1-.27-.15-.41-.1-.35-.19-.71-.28-1.07-.31-1.26-.66-2.51-1.02-3.76-.17-1.11-.48-2.22-.76-3.29-.09-.36-.19-.71-.28-1.07-.01-.12-.03-.24-.04-.36-.17-1.61-.33-3.21-.82-4.76,0-.02-.02-.03-.03-.05,0-.02,0-.03,0-.05.05-1.04-.09-2.08-.4-3.07,0-.07,0-.15-.04-.22l-.05-.03s-.02-.06-.03-.09c.02-.03.03-.05.02-.1-.02.02-.04.02-.05.02,0-.03-.02-.05-.03-.08l.04-.06c-.17,0,.24-.26.07-.25h-.1c-.03-.55-.13-1.07-.25-1.58,0-.26-.02-.51-.09-.76-.03-.04-.07-.07-.11-.09-.07-.3-.13-.6-.18-.91,0,0,0,0,0,0,0,0,0,0,0,0,0-.04-.01-.08-.02-.11,0-.02,0-.03-.01-.05.06-.08.06-.19.05-.31-.03.01-.07-.05-.09,0,.2-.42-.36-.49-.15-.9h-.03c-.23-.2-.03-.41-.24-.62l.12-.02c-.07-.11-.11-.26-.07-.42l-.03.03v-.1s-.04.01-.04.01c.02-.05-.04-.13.01-.23h-.03c-.07-.03-.05-.1-.01-.17l-.11-.04c.1-.2-.12-.4.01-.58-.04-.3-.07-.64-.17-.94-.09-.68-.35-.8-.63-1.41-.19-.75-.08-1.25-.68-1.72,0,0-.04-.03-.1-.07-.2-.97-.41-1.94-.63-2.9-.03-1.81-.48-3.57-.83-5.33-.09-.44-.2-.89-.31-1.33,0-.19-.02-.37-.03-.56-.04-.61-.08-1.21-.17-1.81-.04-.29-.09-.7-.21-1.07.05-.44.1-.88.17-1.32.28-.29.46-.66.49-1.09.03-.36.03-.68.11-1.04.06-.26.11-.52.17-.78.36-1.1.7-2.21,1.01-3.32.57-1.22,1.3-2.37,2.27-3.26.28-.16.57-.32.85-.48.09.04.21.01.33,0-.01-.03.05-.07-.02-.09.47.14.48-.44.95-.28v-.03c.2-.24.39-.09.63-.29.01,0,.03,0,.04,0l.02.1c.13-.09.3-.15.48-.13l-.03-.03h.06c.49-.09.97-.17,1.46-.24.2-.01.4-.03.6-.07.37,0,.59-.06.81-.14.14-.02.28-.04.43-.06.51.06,1.01.15,1.5.24.63.13,1.26.27,1.89.43,0,0,0,0,.01,0,.28.07.57.15.85.23.29.23.57.52.91.66.19-.03.39-.2.55-.15l-.08.14c.08.09.08-.11.21-.1l-.13.15.18.13v-.05c.05.04.11.12.06.21.05-.07.07-.15.16-.1-.1.21.02.29.13.38.01-.03.07-.03.05-.08.14.4.52,0,.65.4v-.03c.28-.05.26.21.54.19l-.06.11c.12.01.24.07.32.2v-.04s.08.05.08.05v-.03s.12.04.16.14v-.03c.07-.03.11.02.14.09l.09-.07c.07.19.33.12.36.32.21.13.43.28.66.37.34.24.54.2.86.28.23.24.53.47.78.66.31.22.55.37.55.37l.8.47s.03.11.07.11c.71.8,2.07.79,2.81,1.49.56.45,1.55,1.2,2.26,1.3.53.21.81.56,1.31.7l.17-.04c.06.09.05.11.17.16-.04-.06.04-.06.09-.07l.09.13c.11-.13.19.39.29.24l.1-.09.1.02s.03,0,.06.01c.07.03.14.07.21.1.14.07.27.15.4.24.26.18.52.38.77.58.51.41,1.04.85,1.6,1.18.33.07.62-.03.91.12l-.09.13c.16.16.12-.08.34,0l-.18.11.35.27-.04-.07c.13.09.25.22.19.3.07-.06.08-.14.25-.04-.12.2.12.38.34.55,0-.03.12,0,.07-.06.38.57.94.27,1.32.82v-.03c.49.06.56.37,1.08.45l-.07.1c.24.06.48.17.7.35v-.05s.15.08.15.08v-.03c.06.06.24.08.35.21v-.03c.12-.01.22.06.29.14l.14-.05c.22.24.69.22.87.47.32.13.66.27,1,.39,2.82,2.5,5.75,4.87,8.75,7.14,1.6,1.22,3.22,2.4,4.86,3.58.54.39,1.08.78,1.63,1.16,1.34,1.29,2.66,2.6,3.96,3.92-.47.38.95,1.5.95,1.5l.53.4s0,.1.03.09c.24.46.8.61,1.25.86.28.3.56.59.84.89.19.25.42.52.66.7.09.09.17.19.26.28.53.84,1.13,1.64,1.76,2.41,1.7,2.08,3.33,4.2,4.98,6.31.33.73.8,1.39,1.3,2.03.42.53.82,1.07,1.22,1.61,0,.01.01.03.02.04.06.12.15.23.25.33.27.36.53.72.79,1.09,1.43,2.03,2.78,4.1,4.05,6.23,1.27,2.13,2.5,4.28,3.86,6.35,1.37,2.08,2.9,4.04,4.38,6.03.31.42.62.83.94,1.24-.09.1-.09.28-.04.49.13.55.61,1.28.61,1.28l.4.59s-.03.1,0,.1c.17.83,1.25,1.18,1.46,1.96.21.52.57,1.41,1.05,1.69.27.32.3.71.59.99l.15.02c0,.09-.02.11.04.19,0-.07.07-.03.11-.03v.14c.15-.07-.07.38.09.3l.12-.04c.77.59,1.07,1.7,1.71,2.47.24.13.52.1.69.28l-.13.09c.06.17.13-.05.28.07l-.2.06.17.3v-.07c.06.1.11.23.02.29.08-.04.13-.1.22.02-.19.14-.07.33.02.52.02-.02.09.03.08-.04.02.54.6.44.61.98l.02-.02c.33.19.22.45.55.68l-.1.06c.14.12.25.29.31.5l.02-.04.07.12.02-.02c0,.07.12.14.12.28l.02-.02c.09.03.12.12.12.21h.13c.02.27.35.43.33.69.04.07.09.14.13.2.01.06.02.12.04.22v-.04s.08.04.12.07c.03.05.06.09.09.13-.41.25.1.37.06.72-.16,0-.04.15-.16.17.23.25.05.58.28.88v-.02c.15.05.15.31.07.42.09-.09.18.06.25-.03-.12.12.06.39.06.39.15,0,.12.27.27.36l-.09.25.09-.11c.03.1.12.08.15.02.04.03,0,.07.02.14l.08-.07c.09.09-.11.24-.13.14-.14.35.19.08.1.37l-.11.1c.01.28.27-.03.26.26l.09-.04c0,.07.04.13-.07.16.14.2.37.4.52.52.04.14-.11,0-.14.1-.05.21.13.17.24.26l-.11.02.19.22.05-.08.11.16c-.03.08-.07,0-.13-.03.13.16-.03.46.24.54l.07-.07s-.04,0-.04-.03c.03-.26.16.08.23.05-.08.12.1.22,0,.37.39.18.26.59.53.75.03-.1.1.04.17-.02.12.06-.05.14.02.22h.17c-.03.32.25.04.32.29-.06.23.32.22.3.52l.09-.05c.03.2.24.16.27.32.11-.03.03-.06.14-.13,0,.17.16-.15.12,0,.22.1-.13.58,0,.73-.02.27.42.19.24.36l-.08-.08.14.25.08-.04c.01.13.27.3.23.5,0,0,.02,0,.03,0,0,.03-.01.06-.02.09.02-.02.03-.03.05-.03.04.1.12.1.08.27l.02-.03c-.05.32.29.72.48,1.06.03-.02.06-.02.08,0,0,.07.04.08.09.09.02.04.04.08.06.12,0,.02,0,.03,0,.05l-.11.11c.02.29.27-.02.26.28l.1-.04c.01.07.04.13-.07.16.14.21.37.43.53.57.04.15-.11-.01-.15.1-.05.22.13.18.25.28h-.11s.19.25.19.25l.05-.08.11.17c-.03.08-.07,0-.13-.04.13.18-.04.48.23.58l.08-.07s-.04-.01-.04-.03c.04-.27.16.09.23.07-.08.12.1.24,0,.39.39.22.25.64.51.83.04-.11.1.05.17,0,.12.08-.06.14.01.23l.17.02c-.04.33.25.07.31.33-.05.16.12.23.21.36.02.05.04.11.06.16,0,.02,0,.04,0,.06h.02c.86,2.46,1.77,4.9,2.88,7.27.05.1.12.19.21.26.31.85.63,1.7.93,2.56.75,2.1,1.45,4.22,2.5,6.2.44,1.19.88,2.39,1.31,3.59.44,1.22.79,2.43,1.42,3.57.54,2.38,1.02,4.78,1.43,7.19.07.44.62.51.84.26.02.03.04.07.06.11.26.38.87.34,1.06-.08.31-.65.21-1.44.07-2.13.05-.91-.28-1.84-.46-2.73-.14-.71-.3-1.42-.49-2.12.01-.15.03-.32-.03-.41-.02-.13-.07-.1-.13-.11,0-.02-.01-.04-.02-.06,0-.03.02-.07.04-.07v-.02s.03-.07.03-.07c-.15-.28,0-.59-.17-.82,0,.07.06.18,0,.2l-.03-.21c0,.09-.02.17-.07.15-.03-.3,0-.58-.07-.93-.09,0-.08-.23-.17-.33.02.01.03.02.04.01.02.05.04.07.03-.05,0,0,0,0-.01,0,0-.02,0-.04.02-.06-.06-.08-.07-.06-.07-.02-.02-.07-.03-.15-.06-.08-.08-.18.04-.23.04-.34-.06-.21-.08-.29-.13-.57v.04s-.02-.02-.03-.04c0-.11-.02-.21-.04-.32.02-.07-.01-.14-.05-.23-.04-.13-.08-.26-.13-.4,0,0,0,0,0,0,.1.02.01-.14.09-.15-.17-.29-.09-.59-.26-.93v.02c-.1-.08-.12-.33-.08-.43-.05.07-.12-.1-.16-.02.06-.1-.07-.4-.07-.4-.1-.03-.1-.29-.21-.41l.04-.22-.05.09c-.02-.1-.08-.1-.1-.05-.03-.04-.01-.07-.02-.14l-.05.05c-.07-.11.06-.21.08-.11.07-.3-.13-.12-.09-.38l.07-.07c-.02-.27-.18-.04-.18-.32h-.06c0-.06-.03-.12.04-.12-.1-.23-.26-.48-.37-.65-.04-.15.07.04.09-.05.03-.18-.09-.2-.17-.32l.07.02-.13-.27-.03.06-.08-.18c.02-.07.04.01.08.07-.09-.19,0-.42-.18-.58l-.05.05s.03.02.03.04c-.01.23-.11-.13-.16-.12.05-.09-.08-.24-.01-.35-.27-.3-.2-.65-.39-.88-.02.09-.07-.07-.12-.04-.09-.1.03-.12-.02-.22l-.12-.06c0-.29-.18-.12-.23-.38.03-.19-.23-.32-.23-.59l-.06.02c-.03-.2-.18-.24-.21-.4-.02,0-.03,0-.04,0-.05-.14-.11-.27-.16-.41.01-.09.02-.18-.02-.25,0-.25-.31-.32-.19-.42l.06.1-.12-.29-.05.02c0-.06-.05-.14-.1-.23-.03-.07-.06-.15-.09-.22,0-.04-.02-.07-.02-.1,0,0-.01,0-.03,0-.03-.17-.11-.17-.1-.34v.03c0-.29-.28-.77-.43-1.13-.02,0-.04,0-.06-.02-1.04-2.59-2.11-5.16-3.25-7.7-.01-.05-.02-.09-.04-.14-.25-.94-.56-1.88-.89-2.8-.75-2.05-1.8-4.01-2.7-6-.19-.42-.38-.83-.56-1.25.07-.14.1-.3.04-.46-.62-1.83-1.51-3.55-2.5-5.2-.71-1.17-1.46-2.32-2.15-3.49.01-.05.02-.1.02-.16-.03-.52-.51-1.03-.81-1.42-.07-.09-.14-.19-.21-.28-.44-.87-.88-1.75-1.38-2.59-.2-.38-.4-.76-.61-1.13-.82-1.49-1.76-2.82-2.91-4.08-.35-.38-.71-.74-1.07-1.11-.12-.17-.24-.34-.36-.51-.01-.11-.03-.21-.08-.26-.04-.14-.1-.08-.17-.1,0,0,0,0,0,0,0-.05,0-.12.03-.13h-.01s.03-.09.03-.09c-.19-.25-.08-.58-.27-.79.01.07.08.17.02.2l-.06-.21c.01.09,0,.17-.05.15-.07-.3-.08-.58-.19-.93-.09.02-.11-.22-.22-.31.02.01.03.01.04,0,.03.05.05.06.02-.06,0,0,0,0-.01,0,0-.02,0-.04.01-.06-.07-.08-.08-.06-.07,0-.03-.07-.05-.15-.07-.07-.11-.17,0-.24-.01-.35-.1-.2-.13-.28-.24-.56v.04c-.05-.07-.13-.06-.19-.21.19-.24-.18-.37-.27-.72.1,0-.02-.14.05-.16-.24-.26-.23-.57-.48-.86v.02c-.11-.05-.19-.3-.19-.4-.03.08-.14-.06-.16.02.04-.11-.17-.37-.17-.37-.11,0-.17-.26-.31-.35l-.02-.23-.02.1c-.05-.09-.11-.08-.11-.03-.04-.03-.03-.07-.06-.13l-.03.06c-.09-.09,0-.22.04-.13-.01-.31-.16-.08-.19-.35l.06-.13-.02.04c-.1-.26-.18,0-.26-.26l-.05.03c-.03-.06-.07-.12,0-.14-.16-.19-.39-.39-.54-.53-.08-.14.08.01.07-.08-.03-.19-.15-.16-.26-.26h.08s-.21-.23-.21-.23v.06s-.14-.16-.14-.16c0-.07.05,0,.1.04-.15-.16-.12-.41-.34-.51l-.03.06s.03.01.04.03c.06.23-.15-.09-.19-.07.02-.1-.15-.21-.12-.34-.35-.21-.38-.57-.63-.74,0,.09-.09-.05-.13,0-.11-.07,0-.12-.09-.2l-.13-.03c-.08-.29-.2-.07-.33-.3-.03-.2-.32-.24-.4-.51l-.05.03c-.09-.18-.24-.18-.32-.32-.07.01,0,.05-.06.1-.06-.16-.07.12-.09,0-.2-.12-.1-.51-.26-.65-.08-.24-.4-.22-.32-.35l.09.08-.21-.24-.05.03c-.06-.12-.34-.29-.39-.46,0,0-.01,0-.03,0-.09-.15-.17-.12-.22-.29v.03c-.1-.28-.56-.62-.85-.9-.06.05-.22-.12-.34-.24.04.04.02.07.02.08-.11-.22-.44-.23-.55-.47h0c-.08,0-.18-.19-.28-.21-.04-.04-.08-.07-.12-.11-1.53-1.91-3.3-3.64-5-5.38-.13-.14-.27-.27-.4-.41-.25-.31-.5-.62-.76-.93h.03c-.05-.08-.11-.14-.17-.17-.2-.24-.39-.48-.59-.72.02-.07.03-.15.03-.23-.19-.23-.28-.41-.41-.77h.14c-.19-.15-.23-.36-.32-.53.03-.15.2.04.15-.19-.22-.33-.11-.16-.33-.49-.04.06.09.23-.02.24.02-.06-.15-.32-.03-.35l-.11.07c-.01-.09-.12-.08-.18-.16,0-.06.02-.12.1-.04-.08-.2-.15-.52-.32-.6-.12-.17-.18-.04-.29-.03-.02-.06-.03-.17,0-.2h-.03s.02-.13.02-.13c-.38-.23-.33-.74-.69-.9.04.08.18.19.09.26l-.16-.25c.05.11.06.23-.03.24-.21-.36-.32-.73-.61-1.14-.13.08-.23-.23-.43-.29.03,0,.05,0,.06-.01.06.05.1.06.01-.09,0,0-.01,0-.02.01,0-.03-.01-.06,0-.09-.13-.06-.14-.03-.11.03-.06-.08-.12-.17-.13-.05-.21-.17-.06-.33-.12-.47-.2-.22-.27-.31-.51-.63v.05c-.05-.05-.14-.03-.23-.09-.03-.04-.05-.08-.08-.11.2-.41-.37-.41-.57-.85.15-.06-.06-.19.05-.26-.41-.24-.44-.69-.87-.98v.03c-.17-.02-.33-.33-.33-.49-.03.1-.15.03-.2.05-.02-.02-.03-.04-.05-.06-.06-.15-.25-.31-.29-.34-.19-.23-.38-.45-.57-.67v-.03s0,.02,0,.02c-.17-.2-.33-.4-.5-.59-.02-.02-.04-.05-.06-.07l.04-.11-.03.07c-.07-.13-.12-.15-.18-.14-.91-1.04-1.84-2.07-2.78-3.09-1.37-1.7-2.78-3.37-4.28-4.96-.97-1.03-1.99-2.03-3.04-2.98-.58-.53-1.19-1.04-1.78-1.57-.21-.19-.41-.4-.63-.58-.7-.7-1.41-1.39-2.14-2.05-.07-.06-.14-.12-.2-.18-.03-.06-.06-.11-.11-.15-1.1-1.13-2.55-2.01-3.87-2.85-.38-.24-.76-.47-1.14-.7-.01,0-.02-.02-.04-.03,0,0-.01,0-.02,0-.37-.22-.75-.44-1.12-.66-.61-.43-1.22-.88-1.84-1.31-2.17-1.63-4.41-3.17-6.68-4.66-2.54-1.67-5.32-2.95-7.82-4.68-.15-.11-.32-.14-.47-.11-.33-.18-.66-.35-.99-.53-.07-.15-.14-.37-.28-.39-.11-.11-.16,0-.26.05-.02-.04-.03-.14,0-.17h-.02s.01-.11.01-.11c-.34-.1-.3-.56-.61-.62.03.07.16.12.08.2l-.14-.18c.05.09.05.19-.03.22-.18-.26-.28-.58-.58-.87-.11.1-.23-.14-.41-.14.03,0,.04-.02.05-.03.06.03.09.02,0-.08,0,0-.01.01-.02.02,0-.02-.02-.05-.01-.08-.12-.02-.12.02-.09.06-.06-.05-.13-.11-.12,0-.2-.08-.09-.27-.16-.37-.2-.12-.27-.18-.51-.38l.02.04s-.09,0-.14.01c-.05-.05-.1-.11-.15-.16.02-.21-.15-.22-.33-.28-.08-.06-.16-.13-.25-.19.09-.09-.07-.14,0-.22-.36-.06-.41-.44-.78-.56v.02c-.14.03-.3-.19-.31-.33-.02.12-.2.04-.2.16.03-.17-.3-.32-.3-.32-.13.08-.28-.18-.48-.19l-.09-.27v.15c-.09-.08-.16-.01-.14.06-.06-.01-.06-.06-.11-.12l-.02.1c-.14-.03-.08-.28.02-.2-.12-.39-.22.03-.36-.28l.02-.15c-.22-.24-.21.18-.42-.08l-.05.09c-.06-.06-.13-.08-.06-.18-.27-.09-.62-.11-.85-.12-.15-.09.09-.06.04-.17-.12-.21-.24-.05-.41-.05l.08-.08c-.11-.02-.22-.04-.33-.05l.02.09-.21-.05c-.04-.08.05-.05.12-.06-.23-.04-.34-.38-.62-.26v.1s.04-.02.06,0c.18.22-.19.05-.22.12-.03-.14-.26-.09-.3-.28-.45.13-.69-.26-1.02-.19.06.1-.11.04-.12.13-.15.04-.07-.14-.2-.15l-.14.11c-.21-.22-.23.05-.39.04,0,0-.01,0-.02,0-.02,0-.04,0-.07-.02-.06-.1-.16-.09-.27-.08-1.09-.33-2.2-.63-3.32-.84-.09-.02-.18-.03-.27-.04-.27-.08-.62-.11-.88-.17,0,.03-.02.04-.04.05-.1,0-.2-.02-.3-.03-.03,0-.05-.02-.08-.02.01,0,.01.01.02.02-.22-.02-.45-.03-.67-.04,0,0,0,0-.01-.01h0s-.08,0-.13,0c-.08-.03-.18-.08-.24-.03,0,0-.02-.01-.02-.02,0,0,0,.02,0,.03,0,0,0,.01-.01.02,0,0-.02,0-.02,0-.03-.03-.07-.04-.11-.04-.13-.1-.26-.15-.43-.17-.02,0-.03-.01-.05,0-.04,0-.08,0-.12,0-.09-.17-.23-.21-.46-.22v.04c-.49.15-.75.31-.88.47-.3.02-.6.04-.9.06-1.47.12-3.02.14-4.34.86-.01,0-.03.01-.06.02,0,0,0,0,0,0-.01,0-.03.01-.04.02,0-.01-.02-.02-.02-.03l.02.04s-.07.04-.11.06c-.1-.02-.22-.06-.24.04-.06.02-.03.08,0,.15-.01.02-.02.03-.03.05-.02-.02-.04-.03-.05-.06v.02s-.07-.06-.07-.06c-.07.22-.38-.01-.42.22.04,0,.08-.08.14.02l-.12.04c.06,0,.13.04.15.11-.17.04-.39-.01-.58.08.08.13-.09.1-.09.23,0-.03-.01-.04-.02-.05.02-.03.01-.06-.06-.04,0,0,0,.01.01.02-.02,0-.04-.01-.06-.03,0,.08.02.1.05.09-.03.02-.08.04,0,.09-.05.11-.19-.06-.27-.06-.09.08-.13.11-.29.19h.03c-.02.05.06.17-.03.21-.36-.31-.18.15-.42.17-.09-.13-.12,0-.19-.1-.04.24-.34.16-.41.4h.02c.05.12-.11.17-.23.14.1.05.06.15.16.18-.14-.06-.21.13-.21.13.09.11-.1.14-.07.28l-.21-.02.12.04s.02.1.07.11c0,.03-.04.02-.08.04l.09.04c0,.08-.22-.03-.17-.07-.31-.04.06.15-.18.15l-.13-.06c-.18.06.18.19-.02.23l.08.06s-.06.05-.15-.02c-.05.14-.05.34-.04.47-.07.06-.06-.07-.15-.08-.18,0-.04.12-.03.22l-.08-.07-.04.17.09.02-.04.1c-.08,0-.05-.04-.06-.09-.03.12-.34.06-.23.26l.1.03s-.02-.03,0-.03c.2-.03.05.12.11.16-.13-.03-.09.11-.26.07.11.29-.25.27-.2.47.09,0,.04.07.11.11.03.09-.13-.01-.14.05l.1.11c-.16.02-.06.08,0,.15-.22.3-.45.59-.66.9-.11.17-.14.4-.09.6-.02.04-.05.08-.11.1,0,0,.01.01.03.02-.1.08.01.14-.15.19h.04c-.26.11-.25.47-.31.7.14.02.07.15.04.25,0-.03.07-.03.09-.03-.17.13.16.28-.02.41h.02c.05.03-.03.12,0,.18-.16.63-.28,1.27-.4,1.91-.02.08,0,.16,0,.23-.24,1.05-.25,2.17-.2,3.25.08,2.01.44,3.96,1.01,5.88.06.42.13.84.19,1.27.29,5.56,1.5,11.13,2.84,16.49-.11,0-.07.09-.18.08.15.21-.12.39.02.62h.01c.12.04.04.21-.06.28.11-.04.15.07.24.02-.15.06-.06.27-.06.27.14.03.02.2.14.28l-.17.15.12-.06c0,.07.08.07.13.04.02.03-.02.05-.03.1l.1-.03c.05.08-.18.14-.17.07-.26.2.15.08-.03.26l-.14.05c-.09.19.26.03.14.22h.1s0,.08-.13.08c.04.12.13.25.21.36,0,.04,0,.08,0,.12-.03-.01-.06-.02-.09,0-.11.11,0,.13.09.19,0,0,0,.02,0,.03h-.07s.07.15.07.15c0,.07,0,.14,0,.21-.05.09-.1.18,0,.25.02.56.09,1.12.17,1.68.2,1.34.5,2.66.86,3.97.36,1.32.74,2.64,1.12,3.95.13.45.23.97.46,1.4.1.69.33,1.37.53,2.06.38,1.3.8,2.59,1.34,3.83.58,1.32,1.16,2.65,1.71,3.98.38.91.65,1.98,1.2,2.82.28.65.56,1.3.88,1.93.33.67.68,1.34,1.13,1.94.04.06.09.11.13.17.35.94.7,1.87,1.06,2.8,0,.16-.04.32.11.41,0-.05-.04-.12,0-.16.07.18.14.36.21.54,0,.11.01.21.04.33.05-.01.07,0,.09.03.03.07.05.13.08.2-.02,0-.03,0-.02.09,0,0,.01,0,.02,0,0,.02-.01.04-.03.07.06.04.09.04.1.02.03.08.06.15.09.23-.03.04-.06.09-.07.13.09.17.11.24.18.48l.05.24s-.07.06-.04.07c-.21.59.59,1.12.45,1.7-.03.41-.06,1.14.26,1.43.13.28,0,.58.18.83l.13.04c-.03.07-.06.08-.03.15.02-.05.07-.02.11,0l-.05.1c.16-.03-.19.27-.02.23h.12c.49.51.35,1.36.66,1.99.17.12.43.14.52.29l-.15.05c0,.13.14-.02.23.08l-.2.02.05.24.02-.05c.02.08.01.18-.08.21.09-.02.15-.06.19.04-.22.08-.19.23-.17.38.03-.01.07.03.09-.02-.18.39.39.4.19.78h.03c.23.17.03.33.25.56l-.12.03c.08.12.12.26.1.43l.03-.03.02.1h.03s.05.11.02.22h.03c.07.02.06.1.04.17l.12.02c-.07.21.19.37.09.57.1.27.2.58.36.83,0,.02,0,.04,0,.06.08.43.44.97.44.97l.31.43s-.04.08,0,.08c.06.65,1.01.82,1.09,1.44.12.4.3,1.1.68,1.29.19.24.14.56.35.76h.02c.1.35.2.7.31,1.05.22.69.48,1.36.7,2.04.18.53.3.92.35,1.36.08.69.16,1.75.94,2,0,.02.01.04.02.06.23.54.34,1.17.7,1.64.04.05.09.09.14.13.27.71.53,1.42.86,2.1.09.19.18.37.27.55-.02.03-.03.05.02.05,0,0,0,0,0,0,.02.05.04.09.06.14-.04.04-.09.09.01.09.01-.01,0-.02,0-.03.02.04.04.09.06.13-.02.02-.03.05-.03.07.02,0,.04-.01.05-.01,0,.01.01.03.02.04,0,0,0,0,0,.01-.01,0-.02.01-.03.03,0,0,.01,0,.02,0-.01,0-.03.02-.05.03.04,0,.06,0,.08-.01,0,.02.01.03.02.05-.04.02-.09.04-.1.06.02.04.03.06,0,.12l.02-.02s.1-.01.13-.01c0,0,0,.01,0,.02-.42.17.02.08-.1.19-.12.04-.1.05-.15.07-.3-.12-.61-.24-.91-.37-.49-.22-.96-.47-1.42-.75-.44-.26-.95-.43-1.37-.73-.48-.35-.83-.84-1.31-1.19-.28-.21-.58-.37-.88-.53-.1-.08-.2-.16-.3-.23-.87-.7-1.81-1.32-2.64-2.08-.13-.11-.27-.15-.41-.15-.43-.46-.86-.91-1.33-1.33-.74-.66-1.59-1.19-2.33-1.85-.09-.07-.18-.11-.27-.13-.54-.59-1.16-1.11-1.76-1.63-.38-.32-.75-.64-1.13-.96-.12-.13-.24-.25-.35-.38-.4-.43-.79-.88-1.22-1.29-.41-.39-.83-.75-1.15-1.21-.02-.02-.04-.04-.06-.06-.12-.26-.3-.49-.48-.71-.38-.47-.73-.96-1.12-1.43-.79-.97-1.59-1.93-2.43-2.86-1.47-1.61-3.07-3.08-4.5-4.72-1.45-1.67-3.01-3.19-4.6-4.73-.49-.47-.98-.95-1.47-1.42-.01-.04-.03-.09-.05-.12-.21-.36-.46-.69-.72-1-.02-.06-.04-.11-.06-.17-.05-.02-.1-.04-.14-.06-.1-.11-.2-.21-.3-.32-.02-.04-.05-.08-.07-.13l.13-.03c-.19-.09-.24-.28-.34-.42.02-.15.2,0,.13-.21-.27-.28-.13-.15-.42-.42-.03.07.14.2.03.23,0-.06-.21-.26-.1-.33l-.09.09c-.03-.08-.13-.04-.21-.1-.01-.05,0-.12.08-.07-.12-.16-.26-.43-.43-.44-.14-.11-.17.03-.27.07-.04-.04-.06-.14-.04-.18h-.03s0-.11,0-.11c-.19-.04-.29-.17-.39-.31-.11-.14-.21-.27-.39-.29.05.07.2.12.13.21l-.19-.18c.07.09.1.19.02.23-.26-.27-.42-.58-.76-.87-.1.11-.25-.15-.44-.14.03,0,.05-.02.05-.03.06.03.1.02,0-.09,0,0-.01.01-.01.02-.01-.02-.02-.05-.02-.08-.13-.02-.13.02-.09.06-.07-.05-.14-.12-.13,0-.22-.09-.11-.28-.2-.39-.22-.14-.3-.2-.57-.44l.02.05c-.09-.04-.2.06-.34-.07.14-.47-.4-.28-.66-.64.13-.1-.08-.16,0-.25-.41-.11-.52-.51-.95-.66v.02c-.15.03-.35-.21-.37-.36-.01.13-.21.03-.2.16.01-.18-.35-.34-.35-.34-.14.07-.3-.2-.51-.22l-.09-.29v.15c-.1-.09-.17-.03-.15.05-.06-.02-.06-.07-.12-.13l-.02.1c-.15-.05-.07-.29.02-.2-.11-.41-.23,0-.36-.32l.03-.15c-.2-.27-.24.15-.43-.15l-.06.08c-.06-.07-.13-.11-.04-.19-.27-.14-.63-.24-.87-.31-.14-.13.11-.04.08-.16-.09-.23-.24-.12-.42-.16l.1-.06-.34-.15v.1s-.22-.11-.22-.11c-.02-.1.06-.03.14-.02-.24-.11-.28-.48-.61-.45l-.02.1s.05,0,.06.01c.15.27-.22-.01-.27.04,0-.15-.26-.18-.26-.37-.52-.03-.68-.49-1.06-.54.04.12-.13,0-.16.09-.17-.01-.05-.16-.18-.21l-.12.04c-2.06-1.88-4.32-3.52-6.64-5.06-3.01-1.99-6.11-3.83-9.4-5.33-.23-.1-.46-.05-.63.08-.95-.63-1.99-1.09-3.06-1.49-.68-.25-1.37-.49-2.04-.75-.42-.16-.84-.33-1.26-.5-.18-.07-.36-.15-.54-.22-.08-.03-.17-.06-.25-.09-.06-.03-.09-.05-.11-.05-.28-.43-.91-.34-1.11,0-2.29-.61-4.63-.91-7.04-.63,0-.03,0-.07-.07-.1-.21.04-.1.02-.31.06.02.05.08.04.11.07-.03,0-.06,0-.09.01-.04-.01-.08-.04-.08-.1l.02.1s-.09.01-.13.02c0,0,0-.01.02-.02-.12-.02-.29-.12-.35-.01-.05,0-.06.04-.06.09-.03,0-.05,0-.08.01v-.03s0,.02-.01.03c-.01,0-.03,0-.04,0l-.03-.04s-.05.05-.08.06c-.02,0-.05,0-.07.01-.13,0-.28-.12-.38.02.05.01.1-.03.13.03-.15.03-.3.06-.45.1-.09-.02-.18-.03-.27-.02.01.1-.07.1-.14.12-.03,0-.06.01-.08.02,0,0,0,0,0,0,.04-.02.05-.05-.05-.06,0,0,0,.01,0,.02-.02-.01-.04-.02-.05-.05-.05.07-.04.1,0,.11-.03,0-.06.01-.07.03-.04.01-.08.02-.11.03-.05-.04-.09-.11-.14-.13-.15.05-.21.07-.43.09l.03.02s-.04.15-.12.18c-.15-.25-.45-.35-.73-.27-.89.25-1.66.78-2.49,1.15-.73.33-1.31.76-1.79,1.41-.49.68-.89,1.37-1.11,2.19-.04.14-.07.28-.09.43-.01.04-.02.07-.03.11-.09.32-.19.64-.3.96-.13.16-.16.42-.25.57.02,0,.03.02.04.03,0,.02-.01.04-.02.05-.01.05-.02.1-.04.15,0,0-.01.02-.02.03,0,0,0,0,.01,0,0,0,0,.02,0,.02-.1.31-.19.62-.28.93-.05.08-.07.17-.07.29-.46,1.78-.56,3.65-.6,5.48-.02.04-.04.08-.05.13-.34,1.23-.46,2.48-.55,3.75-.01,0-.03,0-.04.02-.03.18-.02.09-.05.27.04,0,.05-.02.07-.04,0,.02,0,.05,0,.07-.03.02-.06.04-.1.02l.1.02s0,.08,0,.12c-.01,0-.03,0-.03-.03-.06.09-.22.2-.14.28-.02.07.06.08.14.1,0,.02,0,.04,0,.06-.02,0-.05.01-.07.01h.01s-.09.04-.09.04c.13.21-.25.31-.11.5.03-.04,0-.12.11-.1l-.06.12s.1-.07.17-.04c0,.01,0,.02,0,.03-.1.16-.27.28-.35.47.14.05,0,.15.08.25-.02-.02-.04-.02-.05-.03,0-.04-.03-.06-.07,0,0,0,.01,0,.02,0-.02,0-.04.02-.06.02.04.07.07.07.09.05-.01.04-.04.09.05.07.02.13-.2.08-.26.13-.03.13-.05.18-.14.34h.03s.13.1.07.18c-.46-.08-.09.23-.31.38-.13-.08-.11.04-.22,0,.06.24-.26.28-.24.53h.02c.08.1-.06.2-.18.2.11.02.1.13.2.14-.16-.02-.18.18-.18.18.11.09-.08.17-.02.3l-.21.02.13.02s.03.1.09.1c0,.04-.04.03-.08.06l.1.03c0,.09-.23,0-.18-.04-.32,0,.08.15-.17.18l-.21-.07.07.02c-.17.08.2.18,0,.24l.09.05s-.06.06-.15,0c-.05.14-.04.35-.05.49-.08.06-.06-.08-.15-.08-.18,0-.04.13-.05.23l-.07-.08c-.02.06-.03.11-.06.19.03,0,.06.01.09.02l-.07.14c-.08,0-.04-.05-.04-.11-.07.16-.39.14-.3.38l.1.03s-.02-.03,0-.04c.21-.07.03.15.1.19-.13-.02-.1.15-.28.12.1.33-.27.36-.22.57.09,0,.03.08.11.11.03.1-.14,0-.15.06l.1.12c-.24.03.11.18-.03.26-.19-.03,0,.25-.23.23l.07.07c-.13.01-.03.19-.14.21.05.09.05.03.14.12-.1,0,.04.08.07.1,0,0,0,0,0,0,0,0,0,0-.02,0,0,.02-.01.03-.02.04,0,0,0,0,0,0-.11.05-.46-.19-.52-.11-.2-.05-.06.35-.22.15l.05-.05-.16.09.05.08c-.1-.01-.19.19-.34.11,0,0,0,.02,0,.04-.12-.02-.08.11-.23.02l.03.03c-.27-.11-.59.17-.81.27.07.12-.08.16-.18.18.03-.01.07.04.08.05-.2-.06-.16.3-.37.21h.01c0,.11-.24,0-.16.21-.22-.11-.31-.05-.45.1l.02.03c-.14.32-.3.54-.4.71-1.55.01-3.15-.32-4.58-.71-.76-.77-1.83-1.19-2.76-1.72-.76-.44-1.56-.8-2.37-1.12-.35-.18-.71-.36-1.07-.53-.77-.35-1.5-.78-2.22-1.22-.41-.32-.87-.6-1.34-.82-.85-.52-1.72-1-2.66-1.36-1.95-.74-4.02-1-6.08-1.22-.85-.1-1.71-.15-2.57-.15-.08,0-.15-.01-.23-.02-.09,0-.19-.02-.31-.03,0,.03-.02.05-.05.06-.08,0-.16,0-.24,0,0,0,0,0,0,0-.04,0-.08-.02-.12-.02.02,0,.03.02.03.03-.3.01-.59.02-.89.05-.02,0-.03,0-.05,0-.07,0-.14.01-.21.02-.18-.11-.35-.11-.6-.09v.04c-.56.24-.95.25-1.11.39-.07.05-.08.12-.07.2-.84.5-1.72.94-2.43,1.63-.65.62-1.03,1.43-1.31,2.26-.13.4-.23.8-.32,1.21-.03.06-.06.12-.12.21l.03-.02s.01.04.03.07c-.01.06-.02.12-.04.18-.37-.02-.07.32-.28.52-.13-.08-.11.07-.22.03.06.29-.27.42-.23.74h.02s.02.03.02.05c-.09,0-.1-.1-.21-.04-.06.17-.03.08-.1.25.07.01.09-.08.17-.03-.06,0-.1.12-.21.07l.12.04s.04.07.02.11c-.04.01-.09.01-.1-.04-.08.07-.24.16-.17.25-.03.08.1.09.18.14-.02.02-.09.04-.14.03h.01s-.09.03-.09.03c.11.21-.28.27-.14.46.03-.03,0-.11.11-.08l-.06.11s.12-.06.19-.02c-.1.15-.29.26-.38.48.14.04,0,.15.09.25-.02-.02-.04-.02-.05-.02,0-.04-.03-.06-.07.01,0,0,.01,0,.02,0-.02,0-.03.02-.06.02.05.07.08.07.1.04,0,.04-.03.09.06.07.03.13-.19.1-.24.16,0,.14-.03.19-.09.36l.03-.02c.02.05.15.09.11.18-.47.02-.04.25-.2.44-.15-.04-.09.08-.21.06.13.21-.16.36-.05.59h.01c.11.05.02.2-.09.25.11-.03.15.08.24.04-.15.04-.09.24-.09.24.14.04,0,.18.11.27l-.18.11.12-.04c-.02.06.07.07.13.05.02.03-.02.04-.04.08l.1-.02c.04.07-.2.11-.18.05-.28.15.14.09-.06.23l-.21.04h.07c-.11.14.25.04.11.19h.1s-.02.08-.14.07c.03.14.14.31.21.43-.03.09-.09-.04-.17.01-.15.1.03.13.09.22l-.11-.02.05.18.08-.03.02.12c-.07.04-.06-.02-.09-.05.03.13-.26.25-.06.37l.1-.02s-.03-.02-.02-.03c.16-.14.1.09.18.09-.13.04-.02.15-.19.21.24.21-.08.41.07.57.08-.05.07.05.15.04.07.07-.12.06-.09.13l.14.05c-.19.17.19.1.12.25-.17.11.16.22-.02.37h.1c-.08.11.12.16.06.25.11.02.05-.02.19-.03-.04.04,0,.04.04.03,0,.05,0,.1,0,.14-.13.09-.34.17-.31.25-.16.13.25.24,0,.26l-.02-.07-.02.18h.09c-.06.08.07.27-.08.37,0,0,.02,0,.04,0-.07.1.06.12-.09.21h.04c-.21.15-.13.47-.16.69.14,0,.09.13.06.22,0-.03.07-.03.09-.04-.16.13.18.26,0,.39h.02c.08.05-.14.19.1.22-.2.14-.19.25-.12.45h.04c.13.15.24.28.34.39-.03,1.76-.1,3.5-.32,5.16-.28,2.07-.88,4.07-1.91,5.74-.13.14-.27.28-.41.41-.45.32-1,.62-1.25,1.12-.81.6-1.73,1.08-2.64,1.42-.67.25-1.39.28-2.09.41-.74.14-1.47.36-2.21.53-1.06.23-2.14.31-3.21.36-.55-.09-1.1-.2-1.65-.32-1.03-.34-2.06-.71-3.08-1.08-.05-.06-.09-.12-.15-.18-.28-.03-.47-.15-.79-.39l.12-.07c-.24-.03-.38-.19-.55-.3-.05-.15.2-.06.04-.24-.35-.19-.18-.09-.51-.29-.02.07.17.16.07.22,0-.01-.02-.03-.04-.06,0,0,0,0,0-.01,0,0-.01,0-.02-.01-.07-.07-.16-.16-.09-.22l-.08.1s-.06-.04-.1-.05c0,0,0,0,0,0h0s-.07,0-.11-.03c-.02-.06-.01-.12.08-.07-.13-.15-.27-.45-.47-.49-.17-.14-.2,0-.3.03-.04-.05-.09-.16-.06-.2h-.03s-.03-.13-.03-.13c-.25-.08-.42-.22-.58-.37-.16-.14-.32-.27-.53-.27.08.06.26.1.21.2l-.27-.17c.1.08.17.19.09.24-.37-.25-.66-.54-1.09-.79-.09.12-.3-.12-.51-.11.03,0,.05-.02.05-.03.07.03.11.02-.02-.09,0,0,0,.01-.01.02-.02-.02-.03-.05-.04-.09-.14-.01-.14.02-.09.07-.09-.05-.17-.12-.14,0-.26-.09-.16-.29-.26-.41-.26-.15-.35-.22-.67-.48l.03.05c-.11-.04-.22.05-.38-.1.12-.48-.45-.34-.83-.76.14-.09-.13-.18-.05-.27-.51-.14-.73-.55-1.25-.69l.02.02c-.18.04-.44-.2-.48-.35,0,.13-.22.05-.19.17-.01-.18-.43-.35-.43-.35-.15.08-.36-.21-.6-.24l-.14-.3.02.16c-.12-.09-.19-.03-.17.05-.07-.02-.07-.07-.15-.14v.11c-.19-.06-.13-.31-.01-.21-.17-.43-.26,0-.45-.35l.03-.24v.08c-.28-.3-.26.15-.52-.18l-.06.08c-.07-.07-.16-.12-.07-.2-.33-.16-.78-.27-1.07-.34-.18-.13.11-.04.06-.17-.14-.24-.28-.11-.49-.16l.1-.07-.4-.15v.1s-.24-.12-.24-.12c-.04-.1.06-.04.16-.02-.28-.11-.37-.49-.73-.47v.11s.04,0,.06.02c.2.28-.25-.02-.29.04-.02-.15-.3-.19-.33-.4-.58-.05-.8-.55-1.22-.62.05.12-.15,0-.18.07-.19-.03-.06-.17-.21-.23l-.2.05c-.24-.36-.32.04-.6-.22-.12-.27-.55-.15-.77-.49l-.06.08c-.19-.21-.41-.11-.57-.28-.1.06.02.08-.05.19-.15-.19-.06.22-.13.04-.34-.05-.33-.69-.61-.82-.2-.31-.65-.1-.57-.35l.15.07-.38-.25-.06.07c-.12-.15-.56-.27-.68-.51,0,0-.02,0-.04.02-.16-.18-.28-.11-.38-.34v.05c-.05-.09-.13-.19-.23-.28-.11-.09-.25-.2-.4-.28-.3-.18-.64-.33-.91-.46-.07.12-.37-.06-.6-.17.07.03.06.09.07.12-.16-.16-.38-.16-.59-.18-.02-.03-.05-.05-.09-.03-.02-.01-.04,0-.05,0-.04,0-.08-.02-.11-.03v-.03s-.04,0-.05,0c-.04-.02-.08-.04-.12-.08-.06-.08-.1-.19-.21-.12.02.03.09.02.06.11-.01,0-.02,0-.03-.01l-.06-.05s0,.02,0,.02c-.06-.03-.13-.05-.18-.06-.05-.07-.1-.13-.18-.18-.06.14-.12-.01-.22.07.02-.02.02-.03.03-.05.03,0,.05-.02,0-.07,0,0,0,.01,0,.02,0-.02,0-.04,0-.06-.06.04-.07.07-.05.09-.03-.01-.07-.04-.06.05-.11.02-.05-.19-.08-.25-.11-.02-.15-.04-.27-.12v.03s-.09.14-.15.09c.07-.47-.19-.07-.31-.26.06-.14-.04-.1,0-.21-.2.09-.25-.21-.46-.14h0c-.08.11-.17,0-.19-.12,0,.11-.1.13-.09.23,0-.16-.17-.13-.17-.13-.06.13-.14-.03-.24.06l-.05-.2v.13s-.07.06-.06.11c-.03.01-.03-.03-.06-.06v.1c-.08.03-.05-.21,0-.18-.06-.3-.1.12-.16-.11v-.14c-.08-.14-.09.24-.18.07l-.03.1s-.06-.03-.02-.15c-.08,0-.18.04-.27.07-.02-.02-.05-.04-.07-.06,0,0-.01,0-.02,0,0-.02.01-.04,0-.06-.03-.13-.08-.05-.14,0,0,0-.02,0-.03-.01l.02-.05h-.13s-.06,0-.09-.01c-.07-.06-.11-.26-.25-.13v.09c-.08,0-.15-.01-.22-.02,0-.02-.01-.03-.01-.06-.04.03-.08.04-.11.05-.03,0-.07,0-.1-.01-.1-.05-.18-.16-.29-.09,0,.03,0,.04,0,.05-.05,0-.1-.01-.14-.02,0,0,0,0-.01,0h0c-.14-.02-.29-.05-.43-.07-.4-.06-.8-.11-1.2-.13-.14-.03-.29-.05-.45-.05-.05,0-.1,0-.15.02-1.24-.24-2.51-.28-3.73.07-.81.23-1.45.66-2.06,1.14-.15,0-.32.03-.47.04.02.14-.14.11-.25.11.04,0,.05.06.06.07-.19-.12-.26.25-.46.12v.02c-.02.09-.26-.05-.19.18-.22-.12-.32-.06-.45.08l.02.03c-.08.21-.16.37-.23.51-.29-.03-.59-.06-.89-.04-.61.04-1.2.02-1.81,0-.58-.02-1.17-.04-1.73-.22-.55-.18-1.07-.49-1.56-.8-.98-.63-1.97-1.35-2.85-2.12-.38-.33-.64-.68-.94-1.08-.24-.32-.49-.57-.84-.71-.21-.48-1.01-.18-.85.37ZM242.82,98.47s-.07.06-.1.09c-.95-.35-1.88-.92-2.71-1.6.46.33.93.65,1.42.93.46.26.92.45,1.39.58ZM258.41,95.52s-.01,0-.02,0c0,0,.02,0,.02,0ZM306.95,106.44c.02-.07.04-.14.06-.21.04.03.2.02.09.05,0,.08-.06.13-.15.16ZM307.03,106.18s0,0,.01,0c0,0-.01.01-.02.02,0,0,0-.01,0-.02ZM417.83,43.24c-.03-.14-.05-.27-.08-.41.07-.04.14-.08.21-.16,0,0,0,0,0,0,.04.17.09.35.13.52-.09,0-.18.02-.26.06ZM517.75,102.25s0,0,0,0h0s0,0,0,0ZM507.95,79.21s-.01-.04-.02-.05c0,.02.01.04.02.05ZM508.28,79.81c-.06-.08-.13-.16-.19-.24-.03-.07-.06-.15-.09-.22.17.16.2.31.28.47ZM497.42,69.37s.06.08.1.12c.24.32.47.76.74,1.12.39.67.78,1.34,1.17,2.02.48.85.99,1.68,1.51,2.5-.15-.23-.31-.46-.46-.7-1.06-1.67-2.05-3.38-3.05-5.07ZM441.09,117.13s.08.03.12.04c-.01.05-.02.11-.02.04-.05.02-.08-.02-.09-.08Z"/>
    <path class="cls-3" d="M491.64,57.89s.05,0,.09.04l-.09-.04Z"/>
    <path class="cls-3" d="M404.41,80.37h-.09s.04-.02.09,0Z"/>
    <polygon class="cls-3" points="397.25 74.83 397.25 74.83 397.26 74.76 397.25 74.83"/>
    <path class="cls-3" d="M358.29,60.39h0s0,0,.01,0h-.01Z"/>
    <path class="cls-3" d="M348.56,77.33l.04.04s-.04-.02-.04-.04Z"/>
    <path class="cls-3" d="M309.51,96.25h0s0-.01.01-.02v.02Z"/>
    <path class="cls-3" d="M285.34,109.66l-.1-.02s.05-.02.1.02Z"/>
    <polygon class="cls-3" points="259.58 95.65 259.58 95.65 259.59 95.58 259.58 95.65"/>
    <path class="cls-3" d="M282.75,111.9h0s0,0,0,.01h0Z"/>
    <path class="cls-3" d="M257.17,97.81h0s0,0,0,.01h0Z"/>
    <path class="cls-3" d="M307.03,86.59l.04.05s-.04-.02-.04-.05Z"/>
    <path class="cls-3" d="M309.91,85.65h0s0,0,.01,0h-.01Z"/>
    <path class="cls-3" d="M435.83,94.09h0s0-.01,0-.02v.02Z"/>
    <path class="cls-3" d="M443.15,112.75h0s0-.01,0-.02v.02Z"/>
    <path class="cls-3" d="M433.01,96.87h0s0,.01,0,.02v-.02Z"/>
    <polygon class="cls-3" points="418.18 51.5 418.18 51.5 418.11 51.53 418.18 51.5"/>
    <polygon class="cls-2" points="138.13 103.75 186.1 0 156.16 110.31 259.59 61.67 165.75 126.93 276.25 156.15 162.42 145.82 228.28 239.24 147.72 158.16 138.13 272.05 128.53 158.16 47.97 239.24 113.83 145.82 0 156.15 110.5 126.93 16.66 61.67 120.09 110.31 90.15 0 138.13 103.75"/>
    <polygon class="cls-1" points="126.13 237.01 70.98 237.01 109.98 198.02 107.22 195.26 68.22 234.25 68.22 181.06 64.32 181.06 64.32 234.25 25.33 195.26 22.57 198.02 61.56 237.01 6.41 237.01 6.41 240.92 61.56 240.92 22.57 279.91 25.33 282.67 64.32 243.68 64.32 300.77 68.22 300.77 68.22 243.68 107.22 282.67 109.98 279.91 70.98 240.92 126.13 240.92 126.13 237.01"/>
  </g>
</svg>