<?xml version="1.0" encoding="utf-8"?>
<!-- Generator: Adobe Illustrator 28.1.0, SVG Export Plug-In . SVG Version: 6.00 Build 0)  -->
<svg version="1.1" id="Layer_1" xmlns="http://www.w3.org/2000/svg" xmlns:xlink="http://www.w3.org/1999/xlink" x="0px" y="0px"
	 viewBox="0 0 32 32" style="enable-background:new 0 0 32 32;" xml:space="preserve">
<style type="text/css">
	.st0{fill:#47006D;}
</style>
<path class="st0" d="M18.5,1.5C24.3,1.5,29,6.2,29,12c0,5.8-4.7,10.5-10.5,10.5c-1.8,0-3.5-0.5-5-1.3l-8.4,8.4L3,27.5l8.1-8.1
	C9.2,17.5,8,14.9,8,12C8,6.2,12.7,1.5,18.5,1.5z M18.5,4.5C14.4,4.5,11,7.9,11,12c0,4.1,3.4,7.5,7.5,7.5S26,16.1,26,12
	C26,7.9,22.6,4.5,18.5,4.5z"/>
</svg>
