<?xml version="1.0" encoding="UTF-8"?>
<svg id="Layer_2" data-name="Layer 2" xmlns="http://www.w3.org/2000/svg" viewBox="0 0 3623.4 2919.85">
  <defs>
    <style>
      .cls-1 {
        fill: #2b2b2b;
        stroke-width: 0px;
      }
    </style>
  </defs>
  <g id="Icon">
    <g id="shopping_cart" data-name="shopping cart">
      <path class="cls-1" d="M1305.54,2919.85c-67.54,0-131.04-26.3-178.8-74.06s-74.06-111.26-74.06-178.8,26.3-131.04,74.06-178.8,111.26-74.06,178.8-74.06,131.04,26.3,178.8,74.06,74.06,111.26,74.06,178.8-26.3,131.04-74.06,178.8-111.26,74.06-178.8,74.06ZM1305.54,2592.35c-41.16,0-74.64,33.49-74.64,74.64s33.48,74.64,74.64,74.64,74.64-33.49,74.64-74.64-33.48-74.64-74.64-74.64Z"/>
      <path class="cls-1" d="M2691.11,2919.85c-67.54,0-131.04-26.3-178.8-74.06-47.76-47.76-74.06-111.26-74.06-178.8s26.3-131.04,74.06-178.8c47.76-47.76,111.26-74.06,178.8-74.06s131.04,26.3,178.8,74.06c47.76,47.76,74.06,111.26,74.06,178.8s-26.3,131.04-74.06,178.8c-47.76,47.76-111.26,74.06-178.8,74.06ZM2691.11,2592.35c-41.16,0-74.64,33.49-74.64,74.64s33.49,74.64,74.64,74.64,74.64-33.49,74.64-74.64-33.49-74.64-74.64-74.64Z"/>
      <path class="cls-1" d="M2953.37,2388.04h-1830.94c-40.77,0-80.36-8-117.68-23.79-36-15.23-68.32-37.01-96.05-64.74s-49.51-60.05-64.74-96.05c-15.79-37.32-23.79-76.92-23.79-117.68s8-80.36,23.79-117.68c15.23-36,37.01-68.32,64.74-96.05s60.05-49.51,96.05-64.74c37.32-15.79,76.91-23.79,117.68-23.79,49.21,0,89.11,39.89,89.11,89.11s-39.89,89.11-89.11,89.11c-68.4,0-124.04,55.65-124.04,124.04s55.65,124.05,124.04,124.05h1830.94c49.21,0,89.11,39.89,89.11,89.11s-39.89,89.11-89.11,89.11Z"/>
      <path class="cls-1" d="M1006.19,1961.76c-40.23,0-76.72-27.42-86.56-68.26L506.39,178.21H89.11C39.89,178.21,0,138.32,0,89.11S39.89,0,89.11,0h487.47c41.17,0,76.98,28.21,86.63,68.24l429.69,1783.53c11.53,47.84-17.91,95.97-65.76,107.5-7.01,1.69-14.04,2.5-20.94,2.5Z"/>
      <path class="cls-1" d="M3190.64,1961.74H1006.27c-41.17,0-76.98-28.21-86.63-68.24L575.98,467.07c-6.4-26.55-.27-54.56,16.63-76.01,16.9-21.45,42.69-33.97,70-33.97h2871.69c27.3,0,53.1,12.52,70,33.97,16.9,21.45,23.02,49.46,16.63,76.01l-343.66,1426.43c-9.64,40.03-45.46,68.24-86.63,68.24ZM1076.45,1783.53h2044l300.72-1248.22H775.73l300.72,1248.22Z"/>
      <rect class="cls-1" x="2009.35" y="446.2" width="178.21" height="1426.43"/>
      <rect class="cls-1" x="1291.43" y="425.79" width="178.21" height="1467.25" transform="translate(-233.16 355.6) rotate(-13.55)"/>
      <rect class="cls-1" x="2082.75" y="1070.31" width="1467.25" height="178.21" transform="translate(1029.57 3625.9) rotate(-76.45)"/>
      <rect class="cls-1" x="834.44" y="1070.31" width="2528.03" height="178.21"/>
    </g>
  </g>
</svg>