<?xml version="1.0" encoding="utf-8"?>
<!-- Generator: Adobe Illustrator 28.1.0, SVG Export Plug-In . SVG Version: 6.00 Build 0)  -->
<svg version="1.1" id="Layer_1" xmlns="http://www.w3.org/2000/svg" xmlns:xlink="http://www.w3.org/1999/xlink" x="0px" y="0px"
	 viewBox="0 0 36 36" style="enable-background:new 0 0 36 36;" xml:space="preserve">
<style type="text/css">
	.st0{fill:#47006D;}
</style>
<g id="Icon">
	<g id="shopping_cart">
		<path class="st0" d="M12.5,31.4c-0.6,0-1.2-0.2-1.7-0.7s-0.7-1.1-0.7-1.7s0.2-1.2,0.7-1.7s1.1-0.7,1.7-0.7s1.2,0.2,1.7,0.7
			c0.5,0.5,0.7,1.1,0.7,1.7s-0.2,1.2-0.7,1.7C13.8,31.1,13.2,31.4,12.5,31.4z M12.5,28.3c-0.4,0-0.7,0.3-0.7,0.7
			c0,0.4,0.3,0.7,0.7,0.7s0.7-0.3,0.7-0.7C13.2,28.6,12.9,28.3,12.5,28.3z"/>
		<path class="st0" d="M25.6,31.4c-0.6,0-1.2-0.2-1.7-0.7c-0.5-0.5-0.7-1.1-0.7-1.7s0.2-1.2,0.7-1.7c0.5-0.5,1.1-0.7,1.7-0.7
			s1.2,0.2,1.7,0.7S28,28.3,28,29s-0.2,1.2-0.7,1.7S26.3,31.4,25.6,31.4z M25.6,28.3c-0.4,0-0.7,0.3-0.7,0.7c0,0.4,0.3,0.7,0.7,0.7
			s0.7-0.3,0.7-0.7C26.3,28.6,26,28.3,25.6,28.3z"/>
		<path class="st0" d="M28.1,26.3H10.8c-0.4,0-0.8-0.1-1.1-0.2C9.3,26,9,25.8,8.8,25.5c-0.3-0.3-0.5-0.6-0.6-0.9
			c-0.1-0.4-0.2-0.7-0.2-1.1s0.1-0.8,0.2-1.1c0.1-0.3,0.3-0.6,0.6-0.9C9,21.2,9.3,21,9.7,20.8c0.4-0.1,0.7-0.2,1.1-0.2
			c0.5,0,0.8,0.4,0.8,0.8c0,0.5-0.4,0.8-0.8,0.8c-0.6,0-1.2,0.5-1.2,1.2s0.5,1.2,1.2,1.2h17.3c0.5,0,0.8,0.4,0.8,0.8
			S28.6,26.3,28.1,26.3L28.1,26.3z"/>
		<path class="st0" d="M9.7,22.3c-0.4,0-0.7-0.3-0.8-0.6L5,5.5H1c-0.5,0-0.8-0.4-0.8-0.8c0-0.5,0.4-0.8,0.8-0.8h4.6
			C6,3.8,6.4,4,6.5,4.4l4.1,16.9c0.1,0.5-0.2,0.9-0.6,1C9.8,22.3,9.8,22.3,9.7,22.3L9.7,22.3z"/>
		<path class="st0" d="M30.3,22.3H9.7c-0.4,0-0.7-0.3-0.8-0.6L5.6,8.2c-0.1-0.3,0-0.5,0.2-0.7C6,7.3,6.2,7.1,6.5,7.1h27.1
			c0.3,0,0.5,0.1,0.7,0.3c0.2,0.2,0.2,0.5,0.2,0.7l-3.2,13.5C31.1,22,30.7,22.3,30.3,22.3z M10.4,20.6h19.3l2.8-11.8h-25L10.4,20.6z
			"/>
		<rect x="19.2" y="8" class="st0" width="1.7" height="13.5"/>
		<rect x="12.4" y="7.8" transform="matrix(0.9722 -0.2343 0.2343 0.9722 -3.0805 3.5109)" class="st0" width="1.7" height="13.9"/>
		
			<rect x="19.9" y="13.9" transform="matrix(0.2343 -0.9722 0.9722 0.2343 6.2111 37.3318)" class="st0" width="13.9" height="1.7"/>
		<rect x="8.1" y="13.9" class="st0" width="23.9" height="1.7"/>
	</g>
</g>
</svg>
