<svg width="1131" height="859" viewBox="0 0 1131 859" fill="none" xmlns="http://www.w3.org/2000/svg">
<path d="M13.4414 350.158C235.624 356.11 283.984 320.661 184.266 214.454C373.227 260.308 472.789 243.164 395.754 10.4822C512.038 240.989 638.416 245.587 712.252 127.711C700.651 272.936 829.787 271.063 1005.75 121.329C852.353 296.577 968.529 355.271 1121.19 349.911C967.891 431.553 944.675 484.612 1073.35 558.441C916.165 553.196 828.01 600.826 1072.45 857.972C821.835 658.708 698.045 680.586 673.52 792.409C628.734 687.094 514.189 700.145 411.835 810.975C433.745 649.053 383.886 605.359 116.987 733.882C387.501 523.847 213.584 528.357 121.184 546.212C243.115 483.945 221.377 419.492 13.4415 350.153L13.4414 350.158Z" fill="white"/>
<path d="M41.6735 368.294C255.795 374.03 302.401 339.868 206.299 237.515C388.405 281.705 484.353 265.179 410.113 40.9437C522.178 263.087 643.971 267.519 715.127 153.921C703.942 293.875 828.396 292.069 997.975 147.769C850.145 316.664 962.109 373.227 1109.23 368.065C961.494 446.745 939.122 497.874 1063.12 569.027C911.648 563.975 826.693 609.876 1062.26 857.69C820.743 665.659 701.441 686.74 677.802 794.51C634.643 693.019 524.255 705.591 425.61 812.404C446.727 656.357 398.675 614.249 141.461 738.107C402.158 535.692 234.553 540.041 145.505 557.249C263.008 497.241 242.063 435.129 41.6679 368.305L41.6735 368.294Z" fill="black"/>
<path d="M85.8074 376.031C293.554 383.612 320.279 344.306 223.279 246.195C396.082 290.595 498.403 293.475 427.018 80.7208C537.056 294.557 647.78 288.194 708.448 174.94C686.77 309.726 800.185 319.305 964.99 182.16C826.416 340.483 946.742 379.681 1084.65 374.84C931.673 445.949 910.094 493.687 1041.47 563.147C899.475 558.41 779.067 570.351 999.898 802.652C771.284 619.943 685.011 689.971 676.566 777.976C652.28 672.797 538.811 687.843 434.318 795.548C462.72 645.751 425.796 596.173 174.418 716.744C418.801 526.998 256.383 533.919 172.909 550.05C283.062 493.796 273.658 438.67 85.8075 376.026L85.8074 376.031Z" fill="url(#paint0_linear_500_1131)"/>
<defs>
<linearGradient id="paint0_linear_500_1131" x1="593.392" y1="85.403" x2="573.297" y2="799.459" gradientUnits="userSpaceOnUse">
<stop stop-color="#FFDE05"/>
<stop offset="1" stop-color="#FF6A00"/>
</linearGradient>
</defs>
</svg>
